M48
; DRILL file {KiCad (5.1.10-1-10_14)} date Monday, October 04, 2021 at 09:46:42 PM
; FORMAT={-:-/ absolute / inch / decimal}
; #@! TF.CreationDate,2021-10-04T21:46:42+10:00
; #@! TF.GenerationSoftware,Kicad,Pcbnew,(5.1.10-1-10_14)
; #@! TF.FileFunction,NonPlated,1,2,NPTH
FMAT,2
INCH
T1C0.0120
%
G90
G05
T1
G00X4.0585Y-3.209
M15
G01X4.0585Y-3.111
M16
G05
G00X4.0925Y-3.111
M15
G01X4.0585Y-3.111
M16
G05
G00X4.0925Y-3.209
M15
G01X4.0585Y-3.209
M16
G05
G00X4.0925Y-3.343
M15
G01X4.0925Y-2.871
M16
G05
G00X4.1635Y-2.868
M15
G01X4.1635Y-2.822
M16
G05
G00X4.2715Y-2.819
M15
G01X4.1635Y-2.819
M16
G05
G00X4.3425Y-2.871
M15
G01X4.0925Y-2.871
M16
G05
G00X4.3425Y-3.343
M15
G01X4.0925Y-3.343
M16
G05
G00X4.2715Y-2.868
M15
G01X4.2715Y-2.822
M16
G05
G00X4.3425Y-3.343
M15
G01X4.3425Y-2.871
M16
G05
G00X5.0325Y-3.343
M15
G01X5.0325Y-2.871
M16
G05
G00X5.1035Y-2.868
M15
G01X5.1035Y-2.822
M16
G05
G00X5.2115Y-2.819
M15
G01X5.1035Y-2.819
M16
G05
G00X5.2825Y-2.871
M15
G01X5.0325Y-2.871
M16
G05
G00X5.2825Y-3.343
M15
G01X5.0325Y-3.343
M16
G05
G00X5.2115Y-2.868
M15
G01X5.2115Y-2.822
M16
G05
G00X5.2825Y-3.343
M15
G01X5.2825Y-2.871
M16
G05
G00X5.3165Y-3.111
M15
G01X5.2825Y-3.111
M16
G05
G00X5.3165Y-3.209
M15
G01X5.2825Y-3.209
M16
G05
G00X5.3165Y-3.209
M15
G01X5.3165Y-3.111
M16
G05
G00X7.8085Y-3.959
M15
G01X7.8085Y-3.861
M16
G05
G00X7.8425Y-3.861
M15
G01X7.8085Y-3.861
M16
G05
G00X7.8425Y-3.959
M15
G01X7.8085Y-3.959
M16
G05
G00X7.8425Y-4.093
M15
G01X7.8425Y-3.621
M16
G05
G00X7.9135Y-3.618
M15
G01X7.9135Y-3.572
M16
G05
G00X8.0215Y-3.569
M15
G01X7.9135Y-3.569
M16
G05
G00X8.0925Y-3.621
M15
G01X7.8425Y-3.621
M16
G05
G00X8.0925Y-4.093
M15
G01X7.8425Y-4.093
M16
G05
G00X8.0215Y-3.618
M15
G01X8.0215Y-3.572
M16
G05
G00X8.0925Y-4.093
M15
G01X8.0925Y-3.621
M16
G05
G00X8.7825Y-4.093
M15
G01X8.7825Y-3.621
M16
G05
G00X8.8535Y-3.618
M15
G01X8.8535Y-3.572
M16
G05
G00X8.9615Y-3.569
M15
G01X8.8535Y-3.569
M16
G05
G00X9.0325Y-3.621
M15
G01X8.7825Y-3.621
M16
G05
G00X9.0325Y-4.093
M15
G01X8.7825Y-4.093
M16
G05
G00X8.9615Y-3.618
M15
G01X8.9615Y-3.572
M16
G05
G00X9.0325Y-4.093
M15
G01X9.0325Y-3.621
M16
G05
G00X9.0665Y-3.861
M15
G01X9.0325Y-3.861
M16
G05
G00X9.0665Y-3.959
M15
G01X9.0325Y-3.959
M16
G05
G00X9.0665Y-3.959
M15
G01X9.0665Y-3.861
M16
G05
T0
M30
