G04 #@! TF.GenerationSoftware,KiCad,Pcbnew,(5.1.10-1-10_14)*
G04 #@! TF.CreationDate,2021-10-04T21:46:41+10:00*
G04 #@! TF.ProjectId,WTL-Split-Plates-Left,57544c2d-5370-46c6-9974-2d506c617465,rev?*
G04 #@! TF.SameCoordinates,Original*
G04 #@! TF.FileFunction,Legend,Bot*
G04 #@! TF.FilePolarity,Positive*
%FSLAX46Y46*%
G04 Gerber Fmt 4.6, Leading zero omitted, Abs format (unit mm)*
G04 Created by KiCad (PCBNEW (5.1.10-1-10_14)) date 2021-10-04 21:46:41*
%MOMM*%
%LPD*%
G01*
G04 APERTURE LIST*
%ADD10O,3.048000X0.304800*%
%ADD11O,6.654800X0.304800*%
%ADD12O,0.304800X12.293600*%
%ADD13O,0.304800X2.794000*%
%ADD14O,0.304800X1.473200*%
%ADD15O,1.168400X0.304800*%
G04 APERTURE END LIST*
%LPC*%
D10*
X202374500Y-90652600D03*
D11*
X202374500Y-103962200D03*
D12*
X205549500Y-97967800D03*
D11*
X202374500Y-91973400D03*
D12*
X199199500Y-97967800D03*
D13*
X198335900Y-99314000D03*
D14*
X203746100Y-91313000D03*
D15*
X198767700Y-100558600D03*
D14*
X201002900Y-91313000D03*
D15*
X198767700Y-98069400D03*
D11*
X226250500Y-103962200D03*
D15*
X229857300Y-100558600D03*
D13*
X230289100Y-99314000D03*
D12*
X229425500Y-97967800D03*
X223075500Y-97967800D03*
D11*
X226250500Y-91973400D03*
D15*
X229857300Y-98069400D03*
D14*
X227622100Y-91313000D03*
X224878900Y-91313000D03*
D10*
X226250500Y-90652600D03*
X131000500Y-71602600D03*
D14*
X129628900Y-72263000D03*
X132372100Y-72263000D03*
D15*
X134607300Y-79019400D03*
D11*
X131000500Y-72923400D03*
D12*
X127825500Y-78917800D03*
X134175500Y-78917800D03*
D13*
X135039100Y-80264000D03*
D15*
X134607300Y-81508600D03*
D11*
X131000500Y-84912200D03*
D15*
X103517700Y-79019400D03*
D14*
X105752900Y-72263000D03*
D15*
X103517700Y-81508600D03*
D14*
X108496100Y-72263000D03*
D13*
X103085900Y-80264000D03*
D12*
X103949500Y-78917800D03*
D11*
X107124500Y-72923400D03*
D12*
X110299500Y-78917800D03*
D11*
X107124500Y-84912200D03*
D10*
X107124500Y-71602600D03*
M02*
