G04 #@! TF.GenerationSoftware,KiCad,Pcbnew,(5.1.10-1-10_14)*
G04 #@! TF.CreationDate,2021-09-11T20:30:58+10:00*
G04 #@! TF.ProjectId,WTL-Split-Plates-Left,57544c2d-5370-46c6-9974-2d506c617465,rev?*
G04 #@! TF.SameCoordinates,Original*
G04 #@! TF.FileFunction,Soldermask,Bot*
G04 #@! TF.FilePolarity,Negative*
%FSLAX46Y46*%
G04 Gerber Fmt 4.6, Leading zero omitted, Abs format (unit mm)*
G04 Created by KiCad (PCBNEW (5.1.10-1-10_14)) date 2021-09-11 20:30:58*
%MOMM*%
%LPD*%
G01*
G04 APERTURE LIST*
%ADD10O,3.048000X0.304800*%
%ADD11O,6.654800X0.304800*%
%ADD12O,0.304800X12.293600*%
%ADD13O,0.304800X2.794000*%
%ADD14O,0.304800X1.473200*%
%ADD15O,1.168400X0.304800*%
G04 APERTURE END LIST*
D10*
X226250500Y-106197400D03*
D11*
X226250500Y-92887800D03*
D12*
X223075500Y-98882200D03*
D11*
X226250500Y-104876600D03*
D12*
X229425500Y-98882200D03*
D13*
X230289100Y-97536000D03*
D14*
X224878900Y-105537000D03*
D15*
X229857300Y-96291400D03*
D14*
X227622100Y-105537000D03*
D15*
X229857300Y-98780600D03*
D11*
X202374500Y-92887800D03*
D15*
X198767700Y-96291400D03*
D13*
X198335900Y-97536000D03*
D12*
X199199500Y-98882200D03*
X205549500Y-98882200D03*
D11*
X202374500Y-104876600D03*
D15*
X198767700Y-98780600D03*
D14*
X201002900Y-105537000D03*
X203746100Y-105537000D03*
D10*
X202374500Y-106197400D03*
X107124500Y-87147400D03*
D14*
X108496100Y-86487000D03*
X105752900Y-86487000D03*
D15*
X103517700Y-79730600D03*
D11*
X107124500Y-85826600D03*
D12*
X110299500Y-79832200D03*
X103949500Y-79832200D03*
D13*
X103085900Y-78486000D03*
D15*
X103517700Y-77241400D03*
D11*
X107124500Y-73837800D03*
D15*
X134607300Y-79730600D03*
D14*
X132372100Y-86487000D03*
D15*
X134607300Y-77241400D03*
D14*
X129628900Y-86487000D03*
D13*
X135039100Y-78486000D03*
D12*
X134175500Y-79832200D03*
D11*
X131000500Y-85826600D03*
D12*
X127825500Y-79832200D03*
D11*
X131000500Y-73837800D03*
D10*
X131000500Y-87147400D03*
M02*
