M48
; DRILL file {KiCad (5.1.10-1-10_14)} date Saturday, September 11, 2021 at 08:30:59 PM
; FORMAT={-:-/ absolute / inch / decimal}
; #@! TF.CreationDate,2021-09-11T20:30:59+10:00
; #@! TF.GenerationSoftware,Kicad,Pcbnew,(5.1.10-1-10_14)
; #@! TF.FileFunction,NonPlated,1,2,NPTH
FMAT,2
INCH
T1C0.0120
%
G90
G05
T1
G00X4.0585Y-3.041
M15
G01X4.0585Y-3.139
M16
G05
G00X4.0585Y-3.041
M15
G01X4.0925Y-3.041
M16
G05
G00X4.0585Y-3.139
M15
G01X4.0925Y-3.139
M16
G05
G00X4.0925Y-2.907
M15
G01X4.0925Y-3.379
M16
G05
G00X4.1635Y-3.382
M15
G01X4.1635Y-3.428
M16
G05
G00X4.0925Y-2.907
M15
G01X4.3425Y-2.907
M16
G05
G00X4.0925Y-3.379
M15
G01X4.3425Y-3.379
M16
G05
G00X4.1635Y-3.431
M15
G01X4.2715Y-3.431
M16
G05
G00X4.2715Y-3.382
M15
G01X4.2715Y-3.428
M16
G05
G00X4.3425Y-2.907
M15
G01X4.3425Y-3.379
M16
G05
G00X5.0325Y-2.907
M15
G01X5.0325Y-3.379
M16
G05
G00X5.1035Y-3.382
M15
G01X5.1035Y-3.428
M16
G05
G00X5.0325Y-2.907
M15
G01X5.2825Y-2.907
M16
G05
G00X5.0325Y-3.379
M15
G01X5.2825Y-3.379
M16
G05
G00X5.1035Y-3.431
M15
G01X5.2115Y-3.431
M16
G05
G00X5.2115Y-3.382
M15
G01X5.2115Y-3.428
M16
G05
G00X5.2825Y-2.907
M15
G01X5.2825Y-3.379
M16
G05
G00X5.2825Y-3.041
M15
G01X5.3165Y-3.041
M16
G05
G00X5.2825Y-3.139
M15
G01X5.3165Y-3.139
M16
G05
G00X5.3165Y-3.041
M15
G01X5.3165Y-3.139
M16
G05
G00X7.8085Y-3.791
M15
G01X7.8085Y-3.889
M16
G05
G00X7.8085Y-3.791
M15
G01X7.8425Y-3.791
M16
G05
G00X7.8085Y-3.889
M15
G01X7.8425Y-3.889
M16
G05
G00X7.8425Y-3.657
M15
G01X7.8425Y-4.129
M16
G05
G00X7.9135Y-4.132
M15
G01X7.9135Y-4.178
M16
G05
G00X7.8425Y-3.657
M15
G01X8.0925Y-3.657
M16
G05
G00X7.8425Y-4.129
M15
G01X8.0925Y-4.129
M16
G05
G00X7.9135Y-4.181
M15
G01X8.0215Y-4.181
M16
G05
G00X8.0215Y-4.132
M15
G01X8.0215Y-4.178
M16
G05
G00X8.0925Y-3.657
M15
G01X8.0925Y-4.129
M16
G05
G00X8.7825Y-3.657
M15
G01X8.7825Y-4.129
M16
G05
G00X8.8535Y-4.132
M15
G01X8.8535Y-4.178
M16
G05
G00X8.7825Y-3.657
M15
G01X9.0325Y-3.657
M16
G05
G00X8.7825Y-4.129
M15
G01X9.0325Y-4.129
M16
G05
G00X8.8535Y-4.181
M15
G01X8.9615Y-4.181
M16
G05
G00X8.9615Y-4.132
M15
G01X8.9615Y-4.178
M16
G05
G00X9.0325Y-3.657
M15
G01X9.0325Y-4.129
M16
G05
G00X9.0325Y-3.791
M15
G01X9.0665Y-3.791
M16
G05
G00X9.0325Y-3.889
M15
G01X9.0665Y-3.889
M16
G05
G00X9.0665Y-3.791
M15
G01X9.0665Y-3.889
M16
G05
T0
M30
