M48
; DRILL file {KiCad (5.1.10-1-10_14)} date Monday, October 04, 2021 at 09:43:14 PM
; FORMAT={-:-/ absolute / inch / decimal}
; #@! TF.CreationDate,2021-10-04T21:43:14+10:00
; #@! TF.GenerationSoftware,Kicad,Pcbnew,(5.1.10-1-10_14)
; #@! TF.FileFunction,NonPlated,1,2,NPTH
FMAT,2
INCH
T1C0.0120
%
G90
G05
T1
G00X5.3397Y-5.5215
M15
G01X5.3397Y-5.4235
M16
G05
G00X5.3738Y-5.4235
M15
G01X5.3397Y-5.4235
M16
G05
G00X5.3738Y-5.5215
M15
G01X5.3397Y-5.5215
M16
G05
G00X5.3738Y-5.6555
M15
G01X5.3738Y-5.1835
M16
G05
G00X5.4447Y-5.1805
M15
G01X5.4447Y-5.1345
M16
G05
G00X5.5527Y-5.1315
M15
G01X5.4447Y-5.1315
M16
G05
G00X5.6238Y-5.1835
M15
G01X5.3738Y-5.1835
M16
G05
G00X5.6238Y-5.6555
M15
G01X5.3738Y-5.6555
M16
G05
G00X5.5527Y-5.1805
M15
G01X5.5527Y-5.1345
M16
G05
G00X5.6238Y-5.6555
M15
G01X5.6238Y-5.1835
M16
G05
G00X6.3137Y-5.6555
M15
G01X6.3137Y-5.1835
M16
G05
G00X6.3847Y-5.1805
M15
G01X6.3847Y-5.1345
M16
G05
G00X6.4928Y-5.1315
M15
G01X6.3847Y-5.1315
M16
G05
G00X6.5637Y-5.1835
M15
G01X6.3137Y-5.1835
M16
G05
G00X6.5637Y-5.6555
M15
G01X6.3137Y-5.6555
M16
G05
G00X6.4928Y-5.1805
M15
G01X6.4928Y-5.1345
M16
G05
G00X6.5637Y-5.6555
M15
G01X6.5637Y-5.1835
M16
G05
G00X6.5977Y-5.4235
M15
G01X6.5637Y-5.4235
M16
G05
G00X6.5977Y-5.5215
M15
G01X6.5637Y-5.5215
M16
G05
G00X6.5977Y-5.5215
M15
G01X6.5977Y-5.4235
M16
G05
T0
M30
