M48
; DRILL file {KiCad (5.1.10-1-10_14)} date Saturday, September 11, 2021 at 08:11:06 PM
; FORMAT={-:-/ absolute / inch / decimal}
; #@! TF.CreationDate,2021-09-11T20:11:06+10:00
; #@! TF.GenerationSoftware,Kicad,Pcbnew,(5.1.10-1-10_14)
; #@! TF.FileFunction,NonPlated,1,2,NPTH
FMAT,2
INCH
T1C0.0120
%
G90
G05
T1
G00X5.3397Y-5.3535
M15
G01X5.3397Y-5.4515
M16
G05
G00X5.3397Y-5.3535
M15
G01X5.3738Y-5.3535
M16
G05
G00X5.3397Y-5.4515
M15
G01X5.3738Y-5.4515
M16
G05
G00X5.3738Y-5.2195
M15
G01X5.3738Y-5.6915
M16
G05
G00X5.4447Y-5.6945
M15
G01X5.4447Y-5.7405
M16
G05
G00X5.3738Y-5.2195
M15
G01X5.6238Y-5.2195
M16
G05
G00X5.3738Y-5.6915
M15
G01X5.6238Y-5.6915
M16
G05
G00X5.4447Y-5.7435
M15
G01X5.5527Y-5.7435
M16
G05
G00X5.5527Y-5.6945
M15
G01X5.5527Y-5.7405
M16
G05
G00X5.6238Y-5.2195
M15
G01X5.6238Y-5.6915
M16
G05
G00X6.3137Y-5.2195
M15
G01X6.3137Y-5.6915
M16
G05
G00X6.3847Y-5.6945
M15
G01X6.3847Y-5.7405
M16
G05
G00X6.3137Y-5.2195
M15
G01X6.5637Y-5.2195
M16
G05
G00X6.3137Y-5.6915
M15
G01X6.5637Y-5.6915
M16
G05
G00X6.3847Y-5.7435
M15
G01X6.4928Y-5.7435
M16
G05
G00X6.4928Y-5.6945
M15
G01X6.4928Y-5.7405
M16
G05
G00X6.5637Y-5.2195
M15
G01X6.5637Y-5.6915
M16
G05
G00X6.5637Y-5.3535
M15
G01X6.5977Y-5.3535
M16
G05
G00X6.5637Y-5.4515
M15
G01X6.5977Y-5.4515
M16
G05
G00X6.5977Y-5.3535
M15
G01X6.5977Y-5.4515
M16
G05
T0
M30
