G04 #@! TF.GenerationSoftware,KiCad,Pcbnew,(5.1.10-1-10_14)*
G04 #@! TF.CreationDate,2021-10-04T21:43:12+10:00*
G04 #@! TF.ProjectId,WTL-Split-Plates-Right,57544c2d-5370-46c6-9974-2d506c617465,rev?*
G04 #@! TF.SameCoordinates,Original*
G04 #@! TF.FileFunction,Profile,NP*
%FSLAX46Y46*%
G04 Gerber Fmt 4.6, Leading zero omitted, Abs format (unit mm)*
G04 Created by KiCad (PCBNEW (5.1.10-1-10_14)) date 2021-10-04 21:43:12*
%MOMM*%
%LPD*%
G01*
G04 APERTURE LIST*
G04 #@! TA.AperFunction,Profile*
%ADD10C,0.050000*%
G04 #@! TD*
G04 #@! TA.AperFunction,Profile*
%ADD11C,0.120000*%
G04 #@! TD*
G04 APERTURE END LIST*
D10*
X118268750Y-88900000D02*
X118268750Y-73025000D01*
X121443750Y-90487500D02*
X119856250Y-90487500D01*
X123031250Y-107950000D02*
X123031250Y-92075000D01*
X124618750Y-109537500D02*
X130968750Y-109537500D01*
X132556250Y-146050000D02*
X132556250Y-111125000D01*
X188118750Y-147637500D02*
X134143750Y-147637500D01*
X189706250Y-130175000D02*
X189706250Y-146050000D01*
X245268750Y-128587500D02*
X191293750Y-128587500D01*
X246856250Y-111125000D02*
X246856250Y-127000000D01*
X254793750Y-109537500D02*
X248443750Y-109537500D01*
X256381250Y-92075000D02*
X256381250Y-107950000D01*
X253206250Y-90487500D02*
X254793750Y-90487500D01*
X251618750Y-73025000D02*
X251618750Y-88900000D01*
X119856250Y-71437500D02*
X250031250Y-71437500D01*
X250031250Y-71437500D02*
G75*
G02*
X251618750Y-73025000I0J-1587500D01*
G01*
X253206250Y-90487500D02*
G75*
G02*
X251618750Y-88900000I0J1587500D01*
G01*
X254793750Y-90487500D02*
G75*
G02*
X256381250Y-92075000I0J-1587500D01*
G01*
X256381250Y-107950000D02*
G75*
G02*
X254793750Y-109537500I-1587500J0D01*
G01*
X246856250Y-111125000D02*
G75*
G02*
X248443750Y-109537500I1587500J0D01*
G01*
X246856250Y-127000000D02*
G75*
G02*
X245268750Y-128587500I-1587500J0D01*
G01*
X189706250Y-130175000D02*
G75*
G02*
X191293750Y-128587500I1587500J0D01*
G01*
X189706250Y-146050000D02*
G75*
G02*
X188118750Y-147637500I-1587500J0D01*
G01*
X134143750Y-147637500D02*
G75*
G02*
X132556250Y-146050000I0J1587500D01*
G01*
X130968750Y-109537500D02*
G75*
G02*
X132556250Y-111125000I0J-1587500D01*
G01*
X124618750Y-109537500D02*
G75*
G02*
X123031250Y-107950000I0J1587500D01*
G01*
X121443750Y-90487500D02*
G75*
G02*
X123031250Y-92075000I0J-1587500D01*
G01*
X119856250Y-90487500D02*
G75*
G02*
X118268750Y-88900000I0J1587500D01*
G01*
X118268750Y-73025000D02*
G75*
G02*
X119856250Y-71437500I1587500J0D01*
G01*
D11*
X158606250Y-131112500D02*
X144606250Y-131112500D01*
X158606250Y-145112500D02*
X158606250Y-131112500D01*
X144606250Y-145112500D02*
X158606250Y-145112500D01*
X144606250Y-131112500D02*
X144606250Y-145112500D01*
X187181250Y-131112500D02*
X173181250Y-131112500D01*
X187181250Y-145112500D02*
X187181250Y-131112500D01*
X173181250Y-145112500D02*
X187181250Y-145112500D01*
X173181250Y-131112500D02*
X173181250Y-145112500D01*
X225281250Y-112062500D02*
X211281250Y-112062500D01*
X225281250Y-126062500D02*
X225281250Y-112062500D01*
X211281250Y-126062500D02*
X225281250Y-126062500D01*
X211281250Y-112062500D02*
X211281250Y-126062500D01*
X206231250Y-112062500D02*
X192231250Y-112062500D01*
X206231250Y-126062500D02*
X206231250Y-112062500D01*
X192231250Y-126062500D02*
X206231250Y-126062500D01*
X192231250Y-112062500D02*
X192231250Y-126062500D01*
X244331250Y-112062500D02*
X230331250Y-112062500D01*
X244331250Y-126062500D02*
X244331250Y-112062500D01*
X230331250Y-126062500D02*
X244331250Y-126062500D01*
X230331250Y-112062500D02*
X230331250Y-126062500D01*
X187181250Y-112062500D02*
X173181250Y-112062500D01*
X187181250Y-126062500D02*
X187181250Y-112062500D01*
X173181250Y-126062500D02*
X187181250Y-126062500D01*
X173181250Y-112062500D02*
X173181250Y-126062500D01*
X149081250Y-112062500D02*
X135081250Y-112062500D01*
X149081250Y-126062500D02*
X149081250Y-112062500D01*
X135081250Y-126062500D02*
X149081250Y-126062500D01*
X135081250Y-112062500D02*
X135081250Y-126062500D01*
X168131250Y-112062500D02*
X154131250Y-112062500D01*
X168131250Y-126062500D02*
X168131250Y-112062500D01*
X154131250Y-126062500D02*
X168131250Y-126062500D01*
X154131250Y-112062500D02*
X154131250Y-126062500D01*
X215756250Y-93012500D02*
X201756250Y-93012500D01*
X215756250Y-107012500D02*
X215756250Y-93012500D01*
X201756250Y-107012500D02*
X215756250Y-107012500D01*
X201756250Y-93012500D02*
X201756250Y-107012500D01*
X196706250Y-93012500D02*
X182706250Y-93012500D01*
X196706250Y-107012500D02*
X196706250Y-93012500D01*
X182706250Y-107012500D02*
X196706250Y-107012500D01*
X182706250Y-93012500D02*
X182706250Y-107012500D01*
X253856250Y-93012500D02*
X239856250Y-93012500D01*
X253856250Y-107012500D02*
X253856250Y-93012500D01*
X239856250Y-107012500D02*
X253856250Y-107012500D01*
X239856250Y-93012500D02*
X239856250Y-107012500D01*
X234806250Y-93012500D02*
X220806250Y-93012500D01*
X234806250Y-107012500D02*
X234806250Y-93012500D01*
X220806250Y-107012500D02*
X234806250Y-107012500D01*
X220806250Y-93012500D02*
X220806250Y-107012500D01*
X177656250Y-93012500D02*
X163656250Y-93012500D01*
X177656250Y-107012500D02*
X177656250Y-93012500D01*
X163656250Y-107012500D02*
X177656250Y-107012500D01*
X163656250Y-93012500D02*
X163656250Y-107012500D01*
X139556250Y-93012500D02*
X125556250Y-93012500D01*
X139556250Y-107012500D02*
X139556250Y-93012500D01*
X125556250Y-107012500D02*
X139556250Y-107012500D01*
X125556250Y-93012500D02*
X125556250Y-107012500D01*
X158606250Y-93012500D02*
X144606250Y-93012500D01*
X158606250Y-107012500D02*
X158606250Y-93012500D01*
X144606250Y-107012500D02*
X158606250Y-107012500D01*
X144606250Y-93012500D02*
X144606250Y-107012500D01*
X249093750Y-73962500D02*
X235093750Y-73962500D01*
X249093750Y-87962500D02*
X249093750Y-73962500D01*
X235093750Y-87962500D02*
X249093750Y-87962500D01*
X235093750Y-73962500D02*
X235093750Y-87962500D01*
X230043750Y-73962500D02*
X216043750Y-73962500D01*
X230043750Y-87962500D02*
X230043750Y-73962500D01*
X216043750Y-87962500D02*
X230043750Y-87962500D01*
X216043750Y-73962500D02*
X216043750Y-87962500D01*
X210993750Y-73962500D02*
X196993750Y-73962500D01*
X210993750Y-87962500D02*
X210993750Y-73962500D01*
X196993750Y-87962500D02*
X210993750Y-87962500D01*
X196993750Y-73962500D02*
X196993750Y-87962500D01*
X191943750Y-73962500D02*
X177943750Y-73962500D01*
X191943750Y-87962500D02*
X191943750Y-73962500D01*
X177943750Y-87962500D02*
X191943750Y-87962500D01*
X177943750Y-73962500D02*
X177943750Y-87962500D01*
X172893750Y-73962500D02*
X158893750Y-73962500D01*
X172893750Y-87962500D02*
X172893750Y-73962500D01*
X158893750Y-87962500D02*
X172893750Y-87962500D01*
X158893750Y-73962500D02*
X158893750Y-87962500D01*
X153843750Y-73962500D02*
X139843750Y-73962500D01*
X153843750Y-87962500D02*
X153843750Y-73962500D01*
X139843750Y-87962500D02*
X153843750Y-87962500D01*
X139843750Y-73962500D02*
X139843750Y-87962500D01*
X134793750Y-73962500D02*
X120793750Y-73962500D01*
X134793750Y-87962500D02*
X134793750Y-73962500D01*
X120793750Y-87962500D02*
X134793750Y-87962500D01*
X120793750Y-73962500D02*
X120793750Y-87962500D01*
M02*
