G04 #@! TF.GenerationSoftware,KiCad,Pcbnew,(5.1.10-1-10_14)*
G04 #@! TF.CreationDate,2021-09-05T18:49:50+10:00*
G04 #@! TF.ProjectId,WTL-Split-Left,57544c2d-5370-46c6-9974-2d4c6566742e,rev?*
G04 #@! TF.SameCoordinates,Original*
G04 #@! TF.FileFunction,Copper,L1,Top*
G04 #@! TF.FilePolarity,Positive*
%FSLAX46Y46*%
G04 Gerber Fmt 4.6, Leading zero omitted, Abs format (unit mm)*
G04 Created by KiCad (PCBNEW (5.1.10-1-10_14)) date 2021-09-05 18:49:50*
%MOMM*%
%LPD*%
G01*
G04 APERTURE LIST*
G04 #@! TA.AperFunction,ComponentPad*
%ADD10O,1.700000X2.500000*%
G04 #@! TD*
G04 #@! TA.AperFunction,ComponentPad*
%ADD11C,2.250000*%
G04 #@! TD*
G04 #@! TA.AperFunction,ComponentPad*
%ADD12C,1.524000*%
G04 #@! TD*
G04 #@! TA.AperFunction,ViaPad*
%ADD13C,0.800000*%
G04 #@! TD*
G04 #@! TA.AperFunction,Conductor*
%ADD14C,0.250000*%
G04 #@! TD*
G04 APERTURE END LIST*
D10*
X181256250Y-26318750D03*
X181256250Y-29318750D03*
X181256250Y-33318750D03*
X185456250Y-34818750D03*
D11*
X209708750Y-84613750D03*
X203358750Y-87153750D03*
X181133750Y-84613750D03*
X174783750Y-87153750D03*
D12*
X79502000Y-43953400D03*
X82042000Y-43953400D03*
X84582000Y-43953400D03*
X87122000Y-43953400D03*
X89662000Y-43953400D03*
X92202000Y-43953400D03*
X94742000Y-43953400D03*
X97282000Y-43953400D03*
X99822000Y-43953400D03*
X102362000Y-43953400D03*
X104902000Y-43953400D03*
X107442000Y-43953400D03*
X107442000Y-59173400D03*
X104902000Y-59173400D03*
X102362000Y-59173400D03*
X99822000Y-59173400D03*
X97282000Y-59173400D03*
X94742000Y-59173400D03*
X92202000Y-59173400D03*
X89662000Y-59173400D03*
X87122000Y-59173400D03*
X84582000Y-59173400D03*
X82042000Y-59173400D03*
X79502000Y-59173400D03*
D11*
X152558750Y-84613750D03*
X146208750Y-87153750D03*
X133508750Y-84613750D03*
X127158750Y-87153750D03*
X209708750Y-65563750D03*
X203358750Y-68103750D03*
X190658750Y-65563750D03*
X184308750Y-68103750D03*
X171608750Y-65563750D03*
X165258750Y-68103750D03*
X152558750Y-65563750D03*
X146208750Y-68103750D03*
X133508750Y-65563750D03*
X127158750Y-68103750D03*
X104933750Y-65563750D03*
X98583750Y-68103750D03*
X200183750Y-46513750D03*
X193833750Y-49053750D03*
X181133750Y-46513750D03*
X174783750Y-49053750D03*
X162083750Y-46513750D03*
X155733750Y-49053750D03*
X143033750Y-46513750D03*
X136683750Y-49053750D03*
X123983750Y-46513750D03*
X117633750Y-49053750D03*
X104933750Y-46513750D03*
X98583750Y-49053750D03*
X85883750Y-46513750D03*
X79533750Y-49053750D03*
X195421250Y-27463750D03*
X189071250Y-30003750D03*
X176371250Y-27463750D03*
X170021250Y-30003750D03*
X157321250Y-27463750D03*
X150971250Y-30003750D03*
X138271250Y-27463750D03*
X131921250Y-30003750D03*
X119221250Y-27463750D03*
X112871250Y-30003750D03*
X100171250Y-27463750D03*
X93821250Y-30003750D03*
D13*
X119062500Y-42068750D03*
D14*
X111647103Y-58086399D02*
X103449001Y-58086399D01*
X103449001Y-58086399D02*
X102362000Y-59173400D01*
X119083751Y-50649751D02*
X111647103Y-58086399D01*
X119083751Y-42090001D02*
X119083751Y-50649751D01*
X119062500Y-42068750D02*
X119083751Y-42090001D01*
X98583750Y-59480412D02*
X98583750Y-68103750D01*
X98583750Y-49053750D02*
X98583750Y-59480412D01*
X93821250Y-30003750D02*
X93821250Y-38883888D01*
X93821250Y-39794150D02*
X89662000Y-43953400D01*
X93821250Y-38883888D02*
X93821250Y-39794150D01*
X94762350Y-49053750D02*
X98583750Y-49053750D01*
X89662000Y-43953400D02*
X94762350Y-49053750D01*
X112871250Y-44291250D02*
X117633750Y-49053750D01*
X106151650Y-42703750D02*
X112871250Y-42703750D01*
X104902000Y-43953400D02*
X106151650Y-42703750D01*
X112871250Y-42703750D02*
X112871250Y-44291250D01*
X112871250Y-30003750D02*
X112871250Y-42703750D01*
X127158750Y-68103750D02*
X127158750Y-87153750D01*
X136683750Y-58578750D02*
X127158750Y-68103750D01*
X136683750Y-49053750D02*
X136683750Y-58578750D01*
X131921250Y-44291250D02*
X136683750Y-49053750D01*
X131921250Y-30003750D02*
X131921250Y-44291250D01*
X127931249Y-26013749D02*
X131921250Y-30003750D01*
X114715249Y-26013749D02*
X127931249Y-26013749D01*
X102362000Y-38366998D02*
X114715249Y-26013749D01*
X102362000Y-43953400D02*
X102362000Y-38366998D01*
X150971250Y-44291250D02*
X155733750Y-49053750D01*
X150971250Y-30003750D02*
X150971250Y-44291250D01*
X155733750Y-58578750D02*
X146208750Y-68103750D01*
X155733750Y-49053750D02*
X155733750Y-58578750D01*
X146208750Y-68103750D02*
X146208750Y-87153750D01*
X146531239Y-25563739D02*
X150971250Y-30003750D01*
X114528849Y-25563739D02*
X146531239Y-25563739D01*
X99822000Y-40270588D02*
X114528849Y-25563739D01*
X99822000Y-43953400D02*
X99822000Y-40270588D01*
X170021250Y-44291250D02*
X174783750Y-49053750D01*
X170021250Y-30003750D02*
X170021250Y-44291250D01*
X174783750Y-58578750D02*
X165258750Y-68103750D01*
X174783750Y-49053750D02*
X174783750Y-58578750D01*
X174783750Y-79790724D02*
X174783750Y-87153750D01*
X165258750Y-70265724D02*
X174783750Y-79790724D01*
X165258750Y-68103750D02*
X165258750Y-70265724D01*
X97282000Y-42174178D02*
X114342449Y-25113729D01*
X97282000Y-43953400D02*
X97282000Y-42174178D01*
X165131229Y-25113729D02*
X170021250Y-30003750D01*
X114342449Y-25113729D02*
X165131229Y-25113729D01*
X189071250Y-44291250D02*
X193833750Y-49053750D01*
X193833750Y-58578750D02*
X184308750Y-68103750D01*
X193833750Y-49053750D02*
X193833750Y-58578750D01*
X94742000Y-43953400D02*
X114089150Y-24606250D01*
X189071250Y-30003750D02*
X189071250Y-44291250D01*
X187472248Y-30003750D02*
X189071250Y-30003750D01*
X182074748Y-24606250D02*
X187472248Y-30003750D01*
X114089150Y-24606250D02*
X182074748Y-24606250D01*
X79533750Y-59141650D02*
X79502000Y-59173400D01*
X79533750Y-49053750D02*
X79533750Y-59141650D01*
X203358750Y-68103750D02*
X203358750Y-87153750D01*
X201523749Y-66268749D02*
X203358750Y-68103750D01*
X198733749Y-35092251D02*
X198733749Y-49274849D01*
X187797738Y-24156240D02*
X198733749Y-35092251D01*
X198733749Y-49274849D02*
X201523749Y-52064849D01*
X95192591Y-42866399D02*
X113902750Y-24156240D01*
X201523749Y-52064849D02*
X201523749Y-66268749D01*
X93289001Y-42866399D02*
X95192591Y-42866399D01*
X92202000Y-43953400D02*
X93289001Y-42866399D01*
X113902750Y-24156240D02*
X187797738Y-24156240D01*
X106300238Y-81406240D02*
X121093740Y-81406240D01*
X89825673Y-60260401D02*
X96113749Y-66548477D01*
X88209001Y-60260401D02*
X89825673Y-60260401D01*
X96113749Y-71219751D02*
X106300238Y-81406240D01*
X96113749Y-66548477D02*
X96113749Y-71219751D01*
X87122000Y-59173400D02*
X88209001Y-60260401D01*
X181768750Y-31769535D02*
X181768750Y-29831250D01*
X182583751Y-32584536D02*
X181768750Y-31769535D01*
X181768750Y-29831250D02*
X181256250Y-29318750D01*
X182583751Y-47209751D02*
X182583751Y-32584536D01*
X124688749Y-85001249D02*
X124688749Y-90269751D01*
X181838749Y-47954753D02*
X182583751Y-47209751D01*
X181838749Y-71219751D02*
X181838749Y-47954753D01*
X184873751Y-74254753D02*
X181838749Y-71219751D01*
X126431649Y-92012651D02*
X183130851Y-92012651D01*
X121093740Y-81406240D02*
X124688749Y-85001249D01*
X183130851Y-92012651D02*
X184873751Y-90269751D01*
X184873751Y-90269751D02*
X184873751Y-74254753D01*
X124688749Y-90269751D02*
X126431649Y-92012651D01*
M02*
