M48
; DRILL file {KiCad (5.1.10-1-10_14)} date Saturday, September 11, 2021 at 07:21:05 PM
; FORMAT={-:-/ absolute / inch / decimal}
; #@! TF.CreationDate,2021-09-11T19:21:05+10:00
; #@! TF.GenerationSoftware,Kicad,Pcbnew,(5.1.10-1-10_14)
; #@! TF.FileFunction,Plated,1,2,PTH
FMAT,2
INCH
T1C0.0157
T2C0.0320
T3C0.0394
T4C0.0579
%
G90
G05
T1
X4.6875Y-1.6562
T2
X3.13Y-1.7304
X3.13Y-2.3297
X3.23Y-1.7304
X3.23Y-2.3297
X3.33Y-1.7304
X3.33Y-2.3297
X3.43Y-1.7304
X3.43Y-2.3297
X3.53Y-1.7304
X3.53Y-2.3297
X3.63Y-1.7304
X3.63Y-2.3297
X3.73Y-1.7304
X3.73Y-2.3297
X3.83Y-1.7304
X3.83Y-2.3297
X3.93Y-1.7304
X3.93Y-2.3297
X4.03Y-1.7304
X4.03Y-2.3297
X4.13Y-1.7304
X4.13Y-2.3297
X4.23Y-1.7304
X4.23Y-2.3297
T4
X3.1313Y-1.9312
X3.3813Y-1.8313
X3.6938Y-1.1812
X3.8813Y-1.9312
X3.8813Y-2.6812
X3.9438Y-1.0813
X4.1312Y-1.8313
X4.1312Y-2.5812
X4.4437Y-1.1812
X4.6312Y-1.9312
X4.6937Y-1.0813
X4.8812Y-1.8313
X5.0062Y-2.6812
X5.0062Y-3.4312
X5.1937Y-1.1812
X5.2562Y-2.5812
X5.2562Y-3.3312
X5.3812Y-1.9312
X5.4437Y-1.0813
X5.6312Y-1.8313
X5.7562Y-2.6812
X5.7562Y-3.4312
X5.9437Y-1.1812
X6.0062Y-2.5812
X6.0062Y-3.3312
X6.1312Y-1.9312
X6.1937Y-1.0813
X6.3812Y-1.8313
X6.5062Y-2.6812
X6.6937Y-1.1812
X6.7562Y-2.5812
X6.8812Y-1.9312
X6.8812Y-3.4312
X6.9437Y-1.0813
X7.1312Y-1.8313
X7.1312Y-3.3312
X7.2562Y-2.6812
X7.4437Y-1.1812
X7.5062Y-2.5812
X7.6312Y-1.9312
X7.6937Y-1.0813
X7.8812Y-1.8313
X8.0062Y-2.6812
X8.0062Y-3.4312
X8.2562Y-2.5812
X8.2562Y-3.3312
T3
G00X7.1361Y-1.046
M15
G01X7.1361Y-1.0263
M16
G05
G00X7.1361Y-1.1641
M15
G01X7.1361Y-1.1444
M16
G05
G00X7.1361Y-1.3216
M15
G01X7.1361Y-1.3019
M16
G05
G00X7.3014Y-1.3807
M15
G01X7.3014Y-1.361
M16
G05
T0
M30
