G04 #@! TF.GenerationSoftware,KiCad,Pcbnew,(5.1.10-1-10_14)*
G04 #@! TF.CreationDate,2021-10-03T21:11:22+10:00*
G04 #@! TF.ProjectId,WTL-Split-Left,57544c2d-5370-46c6-9974-2d4c6566742e,rev?*
G04 #@! TF.SameCoordinates,Original*
G04 #@! TF.FileFunction,Soldermask,Bot*
G04 #@! TF.FilePolarity,Negative*
%FSLAX46Y46*%
G04 Gerber Fmt 4.6, Leading zero omitted, Abs format (unit mm)*
G04 Created by KiCad (PCBNEW (5.1.10-1-10_14)) date 2021-10-03 21:11:22*
%MOMM*%
%LPD*%
G01*
G04 APERTURE LIST*
%ADD10C,2.250000*%
%ADD11C,3.987800*%
%ADD12C,1.750000*%
%ADD13C,3.048000*%
%ADD14C,1.152000*%
%ADD15C,1.200000*%
%ADD16C,0.100000*%
%ADD17R,1.400000X1.000000*%
G04 APERTURE END LIST*
D10*
X181133750Y-84613750D03*
D11*
X178593750Y-89693750D03*
D10*
X174783750Y-87153750D03*
D12*
X173513750Y-89693750D03*
X183673750Y-89693750D03*
D13*
X166687500Y-96678750D03*
X190500000Y-96678750D03*
D11*
X166687500Y-81438750D03*
X190500000Y-81438750D03*
D10*
X104933750Y-65563750D03*
D11*
X102393750Y-70643750D03*
D10*
X98583750Y-68103750D03*
D12*
X97313750Y-70643750D03*
X107473750Y-70643750D03*
D13*
X90487500Y-77628750D03*
X114300000Y-77628750D03*
D11*
X90487500Y-62388750D03*
X114300000Y-62388750D03*
D14*
X200818750Y-29368750D03*
X215106250Y-99218750D03*
X75406250Y-43656250D03*
D10*
X181133750Y-46513750D03*
D11*
X178593750Y-51593750D03*
D10*
X174783750Y-49053750D03*
D12*
X173513750Y-51593750D03*
X183673750Y-51593750D03*
D15*
X183356250Y-31518750D03*
X183356250Y-24518750D03*
D16*
G36*
X213198806Y-83750337D02*
G01*
X213905913Y-84457444D01*
X212915964Y-85447393D01*
X212208857Y-84740286D01*
X213198806Y-83750337D01*
G37*
G36*
X215709036Y-81240107D02*
G01*
X216416143Y-81947214D01*
X215426194Y-82937163D01*
X214719087Y-82230056D01*
X215709036Y-81240107D01*
G37*
G36*
X194148806Y-83750337D02*
G01*
X194855913Y-84457444D01*
X193865964Y-85447393D01*
X193158857Y-84740286D01*
X194148806Y-83750337D01*
G37*
G36*
X196659036Y-81240107D02*
G01*
X197366143Y-81947214D01*
X196376194Y-82937163D01*
X195669087Y-82230056D01*
X196659036Y-81240107D01*
G37*
G36*
X156048806Y-83750337D02*
G01*
X156755913Y-84457444D01*
X155765964Y-85447393D01*
X155058857Y-84740286D01*
X156048806Y-83750337D01*
G37*
G36*
X158559036Y-81240107D02*
G01*
X159266143Y-81947214D01*
X158276194Y-82937163D01*
X157569087Y-82230056D01*
X158559036Y-81240107D01*
G37*
G36*
X136998806Y-83750337D02*
G01*
X137705913Y-84457444D01*
X136715964Y-85447393D01*
X136008857Y-84740286D01*
X136998806Y-83750337D01*
G37*
G36*
X139509036Y-81240107D02*
G01*
X140216143Y-81947214D01*
X139226194Y-82937163D01*
X138519087Y-82230056D01*
X139509036Y-81240107D01*
G37*
G36*
X213198806Y-64700337D02*
G01*
X213905913Y-65407444D01*
X212915964Y-66397393D01*
X212208857Y-65690286D01*
X213198806Y-64700337D01*
G37*
G36*
X215709036Y-62190107D02*
G01*
X216416143Y-62897214D01*
X215426194Y-63887163D01*
X214719087Y-63180056D01*
X215709036Y-62190107D01*
G37*
G36*
X194148806Y-64700337D02*
G01*
X194855913Y-65407444D01*
X193865964Y-66397393D01*
X193158857Y-65690286D01*
X194148806Y-64700337D01*
G37*
G36*
X196659036Y-62190107D02*
G01*
X197366143Y-62897214D01*
X196376194Y-63887163D01*
X195669087Y-63180056D01*
X196659036Y-62190107D01*
G37*
G36*
X175098806Y-64700337D02*
G01*
X175805913Y-65407444D01*
X174815964Y-66397393D01*
X174108857Y-65690286D01*
X175098806Y-64700337D01*
G37*
G36*
X177609036Y-62190107D02*
G01*
X178316143Y-62897214D01*
X177326194Y-63887163D01*
X176619087Y-63180056D01*
X177609036Y-62190107D01*
G37*
G36*
X156048806Y-64700337D02*
G01*
X156755913Y-65407444D01*
X155765964Y-66397393D01*
X155058857Y-65690286D01*
X156048806Y-64700337D01*
G37*
G36*
X158559036Y-62190107D02*
G01*
X159266143Y-62897214D01*
X158276194Y-63887163D01*
X157569087Y-63180056D01*
X158559036Y-62190107D01*
G37*
G36*
X136998806Y-64700337D02*
G01*
X137705913Y-65407444D01*
X136715964Y-66397393D01*
X136008857Y-65690286D01*
X136998806Y-64700337D01*
G37*
G36*
X139509036Y-62190107D02*
G01*
X140216143Y-62897214D01*
X139226194Y-63887163D01*
X138519087Y-63180056D01*
X139509036Y-62190107D01*
G37*
G36*
X117948806Y-64700337D02*
G01*
X118655913Y-65407444D01*
X117665964Y-66397393D01*
X116958857Y-65690286D01*
X117948806Y-64700337D01*
G37*
G36*
X120459036Y-62190107D02*
G01*
X121166143Y-62897214D01*
X120176194Y-63887163D01*
X119469087Y-63180056D01*
X120459036Y-62190107D01*
G37*
G36*
X186211306Y-47237837D02*
G01*
X186918413Y-47944944D01*
X185928464Y-48934893D01*
X185221357Y-48227786D01*
X186211306Y-47237837D01*
G37*
G36*
X188721536Y-44727607D02*
G01*
X189428643Y-45434714D01*
X188438694Y-46424663D01*
X187731587Y-45717556D01*
X188721536Y-44727607D01*
G37*
G36*
X184623806Y-45650337D02*
G01*
X185330913Y-46357444D01*
X184340964Y-47347393D01*
X183633857Y-46640286D01*
X184623806Y-45650337D01*
G37*
G36*
X187134036Y-43140107D02*
G01*
X187841143Y-43847214D01*
X186851194Y-44837163D01*
X186144087Y-44130056D01*
X187134036Y-43140107D01*
G37*
G36*
X165573806Y-45650337D02*
G01*
X166280913Y-46357444D01*
X165290964Y-47347393D01*
X164583857Y-46640286D01*
X165573806Y-45650337D01*
G37*
G36*
X168084036Y-43140107D02*
G01*
X168791143Y-43847214D01*
X167801194Y-44837163D01*
X167094087Y-44130056D01*
X168084036Y-43140107D01*
G37*
G36*
X146523806Y-45650337D02*
G01*
X147230913Y-46357444D01*
X146240964Y-47347393D01*
X145533857Y-46640286D01*
X146523806Y-45650337D01*
G37*
G36*
X149034036Y-43140107D02*
G01*
X149741143Y-43847214D01*
X148751194Y-44837163D01*
X148044087Y-44130056D01*
X149034036Y-43140107D01*
G37*
G36*
X127473806Y-45650337D02*
G01*
X128180913Y-46357444D01*
X127190964Y-47347393D01*
X126483857Y-46640286D01*
X127473806Y-45650337D01*
G37*
G36*
X129984036Y-43140107D02*
G01*
X130691143Y-43847214D01*
X129701194Y-44837163D01*
X128994087Y-44130056D01*
X129984036Y-43140107D01*
G37*
G36*
X110805056Y-45650337D02*
G01*
X111512163Y-46357444D01*
X110522214Y-47347393D01*
X109815107Y-46640286D01*
X110805056Y-45650337D01*
G37*
G36*
X113315286Y-43140107D02*
G01*
X114022393Y-43847214D01*
X113032444Y-44837163D01*
X112325337Y-44130056D01*
X113315286Y-43140107D01*
G37*
D17*
X102206250Y-41275000D03*
X105756250Y-41275000D03*
D16*
G36*
X198911306Y-26600337D02*
G01*
X199618413Y-27307444D01*
X198628464Y-28297393D01*
X197921357Y-27590286D01*
X198911306Y-26600337D01*
G37*
G36*
X201421536Y-24090107D02*
G01*
X202128643Y-24797214D01*
X201138694Y-25787163D01*
X200431587Y-25080056D01*
X201421536Y-24090107D01*
G37*
G36*
X162398806Y-28187837D02*
G01*
X163105913Y-28894944D01*
X162115964Y-29884893D01*
X161408857Y-29177786D01*
X162398806Y-28187837D01*
G37*
G36*
X164909036Y-25677607D02*
G01*
X165616143Y-26384714D01*
X164626194Y-27374663D01*
X163919087Y-26667556D01*
X164909036Y-25677607D01*
G37*
G36*
X160811306Y-26600337D02*
G01*
X161518413Y-27307444D01*
X160528464Y-28297393D01*
X159821357Y-27590286D01*
X160811306Y-26600337D01*
G37*
G36*
X163321536Y-24090107D02*
G01*
X164028643Y-24797214D01*
X163038694Y-25787163D01*
X162331587Y-25080056D01*
X163321536Y-24090107D01*
G37*
G36*
X141761306Y-26600337D02*
G01*
X142468413Y-27307444D01*
X141478464Y-28297393D01*
X140771357Y-27590286D01*
X141761306Y-26600337D01*
G37*
G36*
X144271536Y-24090107D02*
G01*
X144978643Y-24797214D01*
X143988694Y-25787163D01*
X143281587Y-25080056D01*
X144271536Y-24090107D01*
G37*
G36*
X122711306Y-26600337D02*
G01*
X123418413Y-27307444D01*
X122428464Y-28297393D01*
X121721357Y-27590286D01*
X122711306Y-26600337D01*
G37*
G36*
X125221536Y-24090107D02*
G01*
X125928643Y-24797214D01*
X124938694Y-25787163D01*
X124231587Y-25080056D01*
X125221536Y-24090107D01*
G37*
G36*
X103661306Y-26600337D02*
G01*
X104368413Y-27307444D01*
X103378464Y-28297393D01*
X102671357Y-27590286D01*
X103661306Y-26600337D01*
G37*
G36*
X106171536Y-24090107D02*
G01*
X106878643Y-24797214D01*
X105888694Y-25787163D01*
X105181587Y-25080056D01*
X106171536Y-24090107D01*
G37*
D10*
X209708750Y-84613750D03*
D11*
X207168750Y-89693750D03*
D10*
X203358750Y-87153750D03*
D12*
X202088750Y-89693750D03*
X212248750Y-89693750D03*
D10*
X152558750Y-84613750D03*
D11*
X150018750Y-89693750D03*
D10*
X146208750Y-87153750D03*
D12*
X144938750Y-89693750D03*
X155098750Y-89693750D03*
D10*
X133508750Y-84613750D03*
D11*
X130968750Y-89693750D03*
D10*
X127158750Y-87153750D03*
D12*
X125888750Y-89693750D03*
X136048750Y-89693750D03*
D10*
X209708750Y-65563750D03*
D11*
X207168750Y-70643750D03*
D10*
X203358750Y-68103750D03*
D12*
X202088750Y-70643750D03*
X212248750Y-70643750D03*
D10*
X190658750Y-65563750D03*
D11*
X188118750Y-70643750D03*
D10*
X184308750Y-68103750D03*
D12*
X183038750Y-70643750D03*
X193198750Y-70643750D03*
D10*
X171608750Y-65563750D03*
D11*
X169068750Y-70643750D03*
D10*
X165258750Y-68103750D03*
D12*
X163988750Y-70643750D03*
X174148750Y-70643750D03*
D10*
X152558750Y-65563750D03*
D11*
X150018750Y-70643750D03*
D10*
X146208750Y-68103750D03*
D12*
X144938750Y-70643750D03*
X155098750Y-70643750D03*
D10*
X133508750Y-65563750D03*
D11*
X130968750Y-70643750D03*
D10*
X127158750Y-68103750D03*
D12*
X125888750Y-70643750D03*
X136048750Y-70643750D03*
D10*
X200183750Y-46513750D03*
D11*
X197643750Y-51593750D03*
D10*
X193833750Y-49053750D03*
D12*
X192563750Y-51593750D03*
X202723750Y-51593750D03*
D10*
X162083750Y-46513750D03*
D11*
X159543750Y-51593750D03*
D10*
X155733750Y-49053750D03*
D12*
X154463750Y-51593750D03*
X164623750Y-51593750D03*
D10*
X143033750Y-46513750D03*
D11*
X140493750Y-51593750D03*
D10*
X136683750Y-49053750D03*
D12*
X135413750Y-51593750D03*
X145573750Y-51593750D03*
D10*
X123983750Y-46513750D03*
D11*
X121443750Y-51593750D03*
D10*
X117633750Y-49053750D03*
D12*
X116363750Y-51593750D03*
X126523750Y-51593750D03*
D10*
X104933750Y-46513750D03*
D11*
X102393750Y-51593750D03*
D10*
X98583750Y-49053750D03*
D12*
X97313750Y-51593750D03*
X107473750Y-51593750D03*
D10*
X85883750Y-46513750D03*
D11*
X83343750Y-51593750D03*
D10*
X79533750Y-49053750D03*
D12*
X78263750Y-51593750D03*
X88423750Y-51593750D03*
D10*
X195421250Y-27463750D03*
D11*
X192881250Y-32543750D03*
D10*
X189071250Y-30003750D03*
D12*
X187801250Y-32543750D03*
X197961250Y-32543750D03*
D10*
X176371250Y-27463750D03*
D11*
X173831250Y-32543750D03*
D10*
X170021250Y-30003750D03*
D12*
X168751250Y-32543750D03*
X178911250Y-32543750D03*
D10*
X157321250Y-27463750D03*
D11*
X154781250Y-32543750D03*
D10*
X150971250Y-30003750D03*
D12*
X149701250Y-32543750D03*
X159861250Y-32543750D03*
D10*
X138271250Y-27463750D03*
D11*
X135731250Y-32543750D03*
D10*
X131921250Y-30003750D03*
D12*
X130651250Y-32543750D03*
X140811250Y-32543750D03*
D10*
X119221250Y-27463750D03*
D11*
X116681250Y-32543750D03*
D10*
X112871250Y-30003750D03*
D12*
X111601250Y-32543750D03*
X121761250Y-32543750D03*
D10*
X100171250Y-27463750D03*
D11*
X97631250Y-32543750D03*
D10*
X93821250Y-30003750D03*
D12*
X92551250Y-32543750D03*
X102711250Y-32543750D03*
M02*
