M48
; DRILL file {KiCad (5.1.10-1-10_14)} date Saturday, September 11, 2021 at 07:21:05 PM
; FORMAT={-:-/ absolute / inch / decimal}
; #@! TF.CreationDate,2021-09-11T19:21:05+10:00
; #@! TF.GenerationSoftware,Kicad,Pcbnew,(5.1.10-1-10_14)
; #@! TF.FileFunction,NonPlated,1,2,NPTH
FMAT,2
INCH
T1C0.0454
T2C0.0472
T3C0.0689
T4C0.1200
T5C0.1570
%
G90
G05
T1
X2.9688Y-1.7188
X7.9062Y-1.1562
X8.4688Y-3.9062
T2
X7.2188Y-0.9653
X7.2188Y-1.2409
T3
X3.0812Y-2.0312
X3.4812Y-2.0312
X3.6437Y-1.2812
X3.8312Y-2.0312
X3.8312Y-2.7812
X4.0438Y-1.2812
X4.2313Y-2.0312
X4.2313Y-2.7812
X4.3937Y-1.2812
X4.5812Y-2.0312
X4.7938Y-1.2812
X4.9562Y-2.7812
X4.9562Y-3.5312
X4.9813Y-2.0312
X5.1437Y-1.2812
X5.3312Y-2.0312
X5.3563Y-2.7812
X5.3563Y-3.5312
X5.5438Y-1.2812
X5.7062Y-2.7812
X5.7062Y-3.5312
X5.7313Y-2.0312
X5.8937Y-1.2812
X6.0812Y-2.0312
X6.1063Y-2.7812
X6.1063Y-3.5312
X6.2938Y-1.2812
X6.4562Y-2.7812
X6.4813Y-2.0312
X6.6437Y-1.2812
X6.8312Y-2.0312
X6.8312Y-3.5312
X6.8563Y-2.7812
X7.0438Y-1.2812
X7.2062Y-2.7812
X7.2313Y-2.0312
X7.2313Y-3.5312
X7.3937Y-1.2812
X7.5812Y-2.0312
X7.6063Y-2.7812
X7.7938Y-1.2812
X7.9562Y-2.7812
X7.9562Y-3.5312
X7.9813Y-2.0312
X8.3562Y-2.7812
X8.3562Y-3.5312
T4
X3.5625Y-2.5063
X4.5Y-2.5063
X6.5625Y-3.2563
X7.5Y-3.2563
T5
X3.2812Y-2.0312
X3.5625Y-3.1062
X3.8438Y-1.2812
X4.0312Y-2.0312
X4.0312Y-2.7812
X4.5Y-3.1062
X4.5938Y-1.2812
X4.7812Y-2.0312
X5.1562Y-2.7812
X5.1562Y-3.5312
X5.3438Y-1.2812
X5.5312Y-2.0312
X5.9062Y-2.7812
X5.9062Y-3.5312
X6.0938Y-1.2812
X6.2812Y-2.0312
X6.5625Y-3.8562
X6.6562Y-2.7812
X6.8438Y-1.2812
X7.0312Y-2.0312
X7.0312Y-3.5312
X7.4062Y-2.7812
X7.5Y-3.8562
X7.5938Y-1.2812
X7.7812Y-2.0312
X8.1562Y-2.7812
X8.1562Y-3.5312
T0
M30
