G04 #@! TF.GenerationSoftware,KiCad,Pcbnew,(5.1.10-1-10_14)*
G04 #@! TF.CreationDate,2021-10-03T21:11:22+10:00*
G04 #@! TF.ProjectId,WTL-Split-Left,57544c2d-5370-46c6-9974-2d4c6566742e,rev?*
G04 #@! TF.SameCoordinates,Original*
G04 #@! TF.FileFunction,Soldermask,Top*
G04 #@! TF.FilePolarity,Negative*
%FSLAX46Y46*%
G04 Gerber Fmt 4.6, Leading zero omitted, Abs format (unit mm)*
G04 Created by KiCad (PCBNEW (5.1.10-1-10_14)) date 2021-10-03 21:11:22*
%MOMM*%
%LPD*%
G01*
G04 APERTURE LIST*
%ADD10C,3.987800*%
%ADD11C,1.750000*%
%ADD12C,3.048000*%
%ADD13C,1.152000*%
%ADD14O,1.700000X2.500000*%
%ADD15C,1.200000*%
%ADD16C,1.524000*%
G04 APERTURE END LIST*
D10*
X178593750Y-89693750D03*
D11*
X173513750Y-89693750D03*
X183673750Y-89693750D03*
D12*
X166687500Y-96678750D03*
X190500000Y-96678750D03*
D10*
X166687500Y-81438750D03*
X190500000Y-81438750D03*
X102393750Y-70643750D03*
D11*
X97313750Y-70643750D03*
X107473750Y-70643750D03*
D12*
X90487500Y-77628750D03*
X114300000Y-77628750D03*
D10*
X90487500Y-62388750D03*
X114300000Y-62388750D03*
D13*
X200818750Y-29368750D03*
X215106250Y-99218750D03*
X75406250Y-43656250D03*
D10*
X178593750Y-51593750D03*
D11*
X173513750Y-51593750D03*
X183673750Y-51593750D03*
D14*
X185456250Y-34818750D03*
X181256250Y-33318750D03*
X181256250Y-29318750D03*
X181256250Y-26318750D03*
D15*
X183356250Y-31518750D03*
X183356250Y-24518750D03*
D10*
X207168750Y-89693750D03*
D11*
X202088750Y-89693750D03*
X212248750Y-89693750D03*
D16*
X79502000Y-43953400D03*
X82042000Y-43953400D03*
X84582000Y-43953400D03*
X87122000Y-43953400D03*
X89662000Y-43953400D03*
X92202000Y-43953400D03*
X94742000Y-43953400D03*
X97282000Y-43953400D03*
X99822000Y-43953400D03*
X102362000Y-43953400D03*
X104902000Y-43953400D03*
X107442000Y-43953400D03*
X107442000Y-59173400D03*
X104902000Y-59173400D03*
X102362000Y-59173400D03*
X99822000Y-59173400D03*
X97282000Y-59173400D03*
X94742000Y-59173400D03*
X92202000Y-59173400D03*
X89662000Y-59173400D03*
X87122000Y-59173400D03*
X84582000Y-59173400D03*
X82042000Y-59173400D03*
X79502000Y-59173400D03*
D10*
X150018750Y-89693750D03*
D11*
X144938750Y-89693750D03*
X155098750Y-89693750D03*
D10*
X130968750Y-89693750D03*
D11*
X125888750Y-89693750D03*
X136048750Y-89693750D03*
D10*
X207168750Y-70643750D03*
D11*
X202088750Y-70643750D03*
X212248750Y-70643750D03*
D10*
X188118750Y-70643750D03*
D11*
X183038750Y-70643750D03*
X193198750Y-70643750D03*
D10*
X169068750Y-70643750D03*
D11*
X163988750Y-70643750D03*
X174148750Y-70643750D03*
D10*
X150018750Y-70643750D03*
D11*
X144938750Y-70643750D03*
X155098750Y-70643750D03*
D10*
X130968750Y-70643750D03*
D11*
X125888750Y-70643750D03*
X136048750Y-70643750D03*
D10*
X197643750Y-51593750D03*
D11*
X192563750Y-51593750D03*
X202723750Y-51593750D03*
D10*
X159543750Y-51593750D03*
D11*
X154463750Y-51593750D03*
X164623750Y-51593750D03*
D10*
X140493750Y-51593750D03*
D11*
X135413750Y-51593750D03*
X145573750Y-51593750D03*
D10*
X121443750Y-51593750D03*
D11*
X116363750Y-51593750D03*
X126523750Y-51593750D03*
D10*
X102393750Y-51593750D03*
D11*
X97313750Y-51593750D03*
X107473750Y-51593750D03*
D10*
X83343750Y-51593750D03*
D11*
X78263750Y-51593750D03*
X88423750Y-51593750D03*
D10*
X192881250Y-32543750D03*
D11*
X187801250Y-32543750D03*
X197961250Y-32543750D03*
D10*
X173831250Y-32543750D03*
D11*
X168751250Y-32543750D03*
X178911250Y-32543750D03*
D10*
X154781250Y-32543750D03*
D11*
X149701250Y-32543750D03*
X159861250Y-32543750D03*
D10*
X135731250Y-32543750D03*
D11*
X130651250Y-32543750D03*
X140811250Y-32543750D03*
D10*
X116681250Y-32543750D03*
D11*
X111601250Y-32543750D03*
X121761250Y-32543750D03*
D10*
X97631250Y-32543750D03*
D11*
X92551250Y-32543750D03*
X102711250Y-32543750D03*
M02*
