G04 #@! TF.GenerationSoftware,KiCad,Pcbnew,(5.1.10-1-10_14)*
G04 #@! TF.CreationDate,2021-10-03T21:11:22+10:00*
G04 #@! TF.ProjectId,WTL-Split-Left,57544c2d-5370-46c6-9974-2d4c6566742e,rev?*
G04 #@! TF.SameCoordinates,Original*
G04 #@! TF.FileFunction,Copper,L2,Bot*
G04 #@! TF.FilePolarity,Positive*
%FSLAX46Y46*%
G04 Gerber Fmt 4.6, Leading zero omitted, Abs format (unit mm)*
G04 Created by KiCad (PCBNEW (5.1.10-1-10_14)) date 2021-10-03 21:11:22*
%MOMM*%
%LPD*%
G01*
G04 APERTURE LIST*
G04 #@! TA.AperFunction,NonConductor*
%ADD10C,0.300000*%
G04 #@! TD*
G04 #@! TA.AperFunction,ComponentPad*
%ADD11C,2.250000*%
G04 #@! TD*
G04 #@! TA.AperFunction,ComponentPad*
%ADD12O,1.700000X2.500000*%
G04 #@! TD*
G04 #@! TA.AperFunction,SMDPad,CuDef*
%ADD13C,0.100000*%
G04 #@! TD*
G04 #@! TA.AperFunction,SMDPad,CuDef*
%ADD14R,1.400000X1.000000*%
G04 #@! TD*
G04 #@! TA.AperFunction,ComponentPad*
%ADD15C,1.524000*%
G04 #@! TD*
G04 #@! TA.AperFunction,Conductor*
%ADD16C,0.250000*%
G04 #@! TD*
G04 APERTURE END LIST*
D10*
X186450892Y-98309821D02*
X186450892Y-96809821D01*
X186450892Y-98238392D02*
X186593750Y-98309821D01*
X186879464Y-98309821D01*
X187022321Y-98238392D01*
X187093750Y-98166964D01*
X187165178Y-98024107D01*
X187165178Y-97595535D01*
X187093750Y-97452678D01*
X187022321Y-97381250D01*
X186879464Y-97309821D01*
X186593750Y-97309821D01*
X186450892Y-97381250D01*
X185165178Y-98238392D02*
X185308035Y-98309821D01*
X185593750Y-98309821D01*
X185736607Y-98238392D01*
X185808035Y-98095535D01*
X185808035Y-97524107D01*
X185736607Y-97381250D01*
X185593750Y-97309821D01*
X185308035Y-97309821D01*
X185165178Y-97381250D01*
X185093750Y-97524107D01*
X185093750Y-97666964D01*
X185808035Y-97809821D01*
X184522321Y-98238392D02*
X184379464Y-98309821D01*
X184093750Y-98309821D01*
X183950892Y-98238392D01*
X183879464Y-98095535D01*
X183879464Y-98024107D01*
X183950892Y-97881250D01*
X184093750Y-97809821D01*
X184308035Y-97809821D01*
X184450892Y-97738392D01*
X184522321Y-97595535D01*
X184522321Y-97524107D01*
X184450892Y-97381250D01*
X184308035Y-97309821D01*
X184093750Y-97309821D01*
X183950892Y-97381250D01*
X183236607Y-98309821D02*
X183236607Y-97309821D01*
X183236607Y-96809821D02*
X183308035Y-96881250D01*
X183236607Y-96952678D01*
X183165178Y-96881250D01*
X183236607Y-96809821D01*
X183236607Y-96952678D01*
X182522321Y-97309821D02*
X182522321Y-98309821D01*
X182522321Y-97452678D02*
X182450892Y-97381250D01*
X182308035Y-97309821D01*
X182093750Y-97309821D01*
X181950892Y-97381250D01*
X181879464Y-97524107D01*
X181879464Y-98309821D01*
X180522321Y-97309821D02*
X180522321Y-98524107D01*
X180593750Y-98666964D01*
X180665178Y-98738392D01*
X180808035Y-98809821D01*
X181022321Y-98809821D01*
X181165178Y-98738392D01*
X180522321Y-98238392D02*
X180665178Y-98309821D01*
X180950892Y-98309821D01*
X181093750Y-98238392D01*
X181165178Y-98166964D01*
X181236607Y-98024107D01*
X181236607Y-97595535D01*
X181165178Y-97452678D01*
X181093750Y-97381250D01*
X180950892Y-97309821D01*
X180665178Y-97309821D01*
X180522321Y-97381250D01*
X178665178Y-98309821D02*
X178665178Y-96809821D01*
X178665178Y-97381250D02*
X178522321Y-97309821D01*
X178236607Y-97309821D01*
X178093750Y-97381250D01*
X178022321Y-97452678D01*
X177950892Y-97595535D01*
X177950892Y-98024107D01*
X178022321Y-98166964D01*
X178093750Y-98238392D01*
X178236607Y-98309821D01*
X178522321Y-98309821D01*
X178665178Y-98238392D01*
X177450892Y-97309821D02*
X177093750Y-98309821D01*
X176736607Y-97309821D02*
X177093750Y-98309821D01*
X177236607Y-98666964D01*
X177308035Y-98738392D01*
X177450892Y-98809821D01*
X175093750Y-98238392D02*
X174950892Y-98309821D01*
X174665178Y-98309821D01*
X174522321Y-98238392D01*
X174450892Y-98095535D01*
X174450892Y-98024107D01*
X174522321Y-97881250D01*
X174665178Y-97809821D01*
X174879464Y-97809821D01*
X175022321Y-97738392D01*
X175093750Y-97595535D01*
X175093750Y-97524107D01*
X175022321Y-97381250D01*
X174879464Y-97309821D01*
X174665178Y-97309821D01*
X174522321Y-97381250D01*
X173165178Y-98309821D02*
X173165178Y-97524107D01*
X173236607Y-97381250D01*
X173379464Y-97309821D01*
X173665178Y-97309821D01*
X173808035Y-97381250D01*
X173165178Y-98238392D02*
X173308035Y-98309821D01*
X173665178Y-98309821D01*
X173808035Y-98238392D01*
X173879464Y-98095535D01*
X173879464Y-97952678D01*
X173808035Y-97809821D01*
X173665178Y-97738392D01*
X173308035Y-97738392D01*
X173165178Y-97666964D01*
X172665178Y-97309821D02*
X172093750Y-97309821D01*
X172450892Y-96809821D02*
X172450892Y-98095535D01*
X172379464Y-98238392D01*
X172236607Y-98309821D01*
X172093750Y-98309821D01*
X170808035Y-98309821D02*
X171665178Y-98309821D01*
X171236607Y-98309821D02*
X171236607Y-96809821D01*
X171379464Y-97024107D01*
X171522321Y-97166964D01*
X171665178Y-97238392D01*
X169950892Y-98309821D02*
X170093750Y-98238392D01*
X170165178Y-98095535D01*
X170165178Y-96809821D01*
D11*
X181133750Y-84613750D03*
X174783750Y-87153750D03*
X104933750Y-65563750D03*
X98583750Y-68103750D03*
X181133750Y-46513750D03*
X174783750Y-49053750D03*
D12*
X185456250Y-34818750D03*
X181256250Y-33318750D03*
X181256250Y-29318750D03*
X181256250Y-26318750D03*
G04 #@! TA.AperFunction,SMDPad,CuDef*
D13*
G36*
X213198806Y-83750337D02*
G01*
X213905913Y-84457444D01*
X212915964Y-85447393D01*
X212208857Y-84740286D01*
X213198806Y-83750337D01*
G37*
G04 #@! TD.AperFunction*
G04 #@! TA.AperFunction,SMDPad,CuDef*
G36*
X215709036Y-81240107D02*
G01*
X216416143Y-81947214D01*
X215426194Y-82937163D01*
X214719087Y-82230056D01*
X215709036Y-81240107D01*
G37*
G04 #@! TD.AperFunction*
G04 #@! TA.AperFunction,SMDPad,CuDef*
G36*
X194148806Y-83750337D02*
G01*
X194855913Y-84457444D01*
X193865964Y-85447393D01*
X193158857Y-84740286D01*
X194148806Y-83750337D01*
G37*
G04 #@! TD.AperFunction*
G04 #@! TA.AperFunction,SMDPad,CuDef*
G36*
X196659036Y-81240107D02*
G01*
X197366143Y-81947214D01*
X196376194Y-82937163D01*
X195669087Y-82230056D01*
X196659036Y-81240107D01*
G37*
G04 #@! TD.AperFunction*
G04 #@! TA.AperFunction,SMDPad,CuDef*
G36*
X156048806Y-83750337D02*
G01*
X156755913Y-84457444D01*
X155765964Y-85447393D01*
X155058857Y-84740286D01*
X156048806Y-83750337D01*
G37*
G04 #@! TD.AperFunction*
G04 #@! TA.AperFunction,SMDPad,CuDef*
G36*
X158559036Y-81240107D02*
G01*
X159266143Y-81947214D01*
X158276194Y-82937163D01*
X157569087Y-82230056D01*
X158559036Y-81240107D01*
G37*
G04 #@! TD.AperFunction*
G04 #@! TA.AperFunction,SMDPad,CuDef*
G36*
X136998806Y-83750337D02*
G01*
X137705913Y-84457444D01*
X136715964Y-85447393D01*
X136008857Y-84740286D01*
X136998806Y-83750337D01*
G37*
G04 #@! TD.AperFunction*
G04 #@! TA.AperFunction,SMDPad,CuDef*
G36*
X139509036Y-81240107D02*
G01*
X140216143Y-81947214D01*
X139226194Y-82937163D01*
X138519087Y-82230056D01*
X139509036Y-81240107D01*
G37*
G04 #@! TD.AperFunction*
G04 #@! TA.AperFunction,SMDPad,CuDef*
G36*
X213198806Y-64700337D02*
G01*
X213905913Y-65407444D01*
X212915964Y-66397393D01*
X212208857Y-65690286D01*
X213198806Y-64700337D01*
G37*
G04 #@! TD.AperFunction*
G04 #@! TA.AperFunction,SMDPad,CuDef*
G36*
X215709036Y-62190107D02*
G01*
X216416143Y-62897214D01*
X215426194Y-63887163D01*
X214719087Y-63180056D01*
X215709036Y-62190107D01*
G37*
G04 #@! TD.AperFunction*
G04 #@! TA.AperFunction,SMDPad,CuDef*
G36*
X194148806Y-64700337D02*
G01*
X194855913Y-65407444D01*
X193865964Y-66397393D01*
X193158857Y-65690286D01*
X194148806Y-64700337D01*
G37*
G04 #@! TD.AperFunction*
G04 #@! TA.AperFunction,SMDPad,CuDef*
G36*
X196659036Y-62190107D02*
G01*
X197366143Y-62897214D01*
X196376194Y-63887163D01*
X195669087Y-63180056D01*
X196659036Y-62190107D01*
G37*
G04 #@! TD.AperFunction*
G04 #@! TA.AperFunction,SMDPad,CuDef*
G36*
X175098806Y-64700337D02*
G01*
X175805913Y-65407444D01*
X174815964Y-66397393D01*
X174108857Y-65690286D01*
X175098806Y-64700337D01*
G37*
G04 #@! TD.AperFunction*
G04 #@! TA.AperFunction,SMDPad,CuDef*
G36*
X177609036Y-62190107D02*
G01*
X178316143Y-62897214D01*
X177326194Y-63887163D01*
X176619087Y-63180056D01*
X177609036Y-62190107D01*
G37*
G04 #@! TD.AperFunction*
G04 #@! TA.AperFunction,SMDPad,CuDef*
G36*
X156048806Y-64700337D02*
G01*
X156755913Y-65407444D01*
X155765964Y-66397393D01*
X155058857Y-65690286D01*
X156048806Y-64700337D01*
G37*
G04 #@! TD.AperFunction*
G04 #@! TA.AperFunction,SMDPad,CuDef*
G36*
X158559036Y-62190107D02*
G01*
X159266143Y-62897214D01*
X158276194Y-63887163D01*
X157569087Y-63180056D01*
X158559036Y-62190107D01*
G37*
G04 #@! TD.AperFunction*
G04 #@! TA.AperFunction,SMDPad,CuDef*
G36*
X136998806Y-64700337D02*
G01*
X137705913Y-65407444D01*
X136715964Y-66397393D01*
X136008857Y-65690286D01*
X136998806Y-64700337D01*
G37*
G04 #@! TD.AperFunction*
G04 #@! TA.AperFunction,SMDPad,CuDef*
G36*
X139509036Y-62190107D02*
G01*
X140216143Y-62897214D01*
X139226194Y-63887163D01*
X138519087Y-63180056D01*
X139509036Y-62190107D01*
G37*
G04 #@! TD.AperFunction*
G04 #@! TA.AperFunction,SMDPad,CuDef*
G36*
X117948806Y-64700337D02*
G01*
X118655913Y-65407444D01*
X117665964Y-66397393D01*
X116958857Y-65690286D01*
X117948806Y-64700337D01*
G37*
G04 #@! TD.AperFunction*
G04 #@! TA.AperFunction,SMDPad,CuDef*
G36*
X120459036Y-62190107D02*
G01*
X121166143Y-62897214D01*
X120176194Y-63887163D01*
X119469087Y-63180056D01*
X120459036Y-62190107D01*
G37*
G04 #@! TD.AperFunction*
G04 #@! TA.AperFunction,SMDPad,CuDef*
G36*
X186211306Y-47237837D02*
G01*
X186918413Y-47944944D01*
X185928464Y-48934893D01*
X185221357Y-48227786D01*
X186211306Y-47237837D01*
G37*
G04 #@! TD.AperFunction*
G04 #@! TA.AperFunction,SMDPad,CuDef*
G36*
X188721536Y-44727607D02*
G01*
X189428643Y-45434714D01*
X188438694Y-46424663D01*
X187731587Y-45717556D01*
X188721536Y-44727607D01*
G37*
G04 #@! TD.AperFunction*
G04 #@! TA.AperFunction,SMDPad,CuDef*
G36*
X184623806Y-45650337D02*
G01*
X185330913Y-46357444D01*
X184340964Y-47347393D01*
X183633857Y-46640286D01*
X184623806Y-45650337D01*
G37*
G04 #@! TD.AperFunction*
G04 #@! TA.AperFunction,SMDPad,CuDef*
G36*
X187134036Y-43140107D02*
G01*
X187841143Y-43847214D01*
X186851194Y-44837163D01*
X186144087Y-44130056D01*
X187134036Y-43140107D01*
G37*
G04 #@! TD.AperFunction*
G04 #@! TA.AperFunction,SMDPad,CuDef*
G36*
X165573806Y-45650337D02*
G01*
X166280913Y-46357444D01*
X165290964Y-47347393D01*
X164583857Y-46640286D01*
X165573806Y-45650337D01*
G37*
G04 #@! TD.AperFunction*
G04 #@! TA.AperFunction,SMDPad,CuDef*
G36*
X168084036Y-43140107D02*
G01*
X168791143Y-43847214D01*
X167801194Y-44837163D01*
X167094087Y-44130056D01*
X168084036Y-43140107D01*
G37*
G04 #@! TD.AperFunction*
G04 #@! TA.AperFunction,SMDPad,CuDef*
G36*
X146523806Y-45650337D02*
G01*
X147230913Y-46357444D01*
X146240964Y-47347393D01*
X145533857Y-46640286D01*
X146523806Y-45650337D01*
G37*
G04 #@! TD.AperFunction*
G04 #@! TA.AperFunction,SMDPad,CuDef*
G36*
X149034036Y-43140107D02*
G01*
X149741143Y-43847214D01*
X148751194Y-44837163D01*
X148044087Y-44130056D01*
X149034036Y-43140107D01*
G37*
G04 #@! TD.AperFunction*
G04 #@! TA.AperFunction,SMDPad,CuDef*
G36*
X127473806Y-45650337D02*
G01*
X128180913Y-46357444D01*
X127190964Y-47347393D01*
X126483857Y-46640286D01*
X127473806Y-45650337D01*
G37*
G04 #@! TD.AperFunction*
G04 #@! TA.AperFunction,SMDPad,CuDef*
G36*
X129984036Y-43140107D02*
G01*
X130691143Y-43847214D01*
X129701194Y-44837163D01*
X128994087Y-44130056D01*
X129984036Y-43140107D01*
G37*
G04 #@! TD.AperFunction*
G04 #@! TA.AperFunction,SMDPad,CuDef*
G36*
X110805056Y-45650337D02*
G01*
X111512163Y-46357444D01*
X110522214Y-47347393D01*
X109815107Y-46640286D01*
X110805056Y-45650337D01*
G37*
G04 #@! TD.AperFunction*
G04 #@! TA.AperFunction,SMDPad,CuDef*
G36*
X113315286Y-43140107D02*
G01*
X114022393Y-43847214D01*
X113032444Y-44837163D01*
X112325337Y-44130056D01*
X113315286Y-43140107D01*
G37*
G04 #@! TD.AperFunction*
D14*
X102206250Y-41275000D03*
X105756250Y-41275000D03*
G04 #@! TA.AperFunction,SMDPad,CuDef*
D13*
G36*
X198911306Y-26600337D02*
G01*
X199618413Y-27307444D01*
X198628464Y-28297393D01*
X197921357Y-27590286D01*
X198911306Y-26600337D01*
G37*
G04 #@! TD.AperFunction*
G04 #@! TA.AperFunction,SMDPad,CuDef*
G36*
X201421536Y-24090107D02*
G01*
X202128643Y-24797214D01*
X201138694Y-25787163D01*
X200431587Y-25080056D01*
X201421536Y-24090107D01*
G37*
G04 #@! TD.AperFunction*
G04 #@! TA.AperFunction,SMDPad,CuDef*
G36*
X162398806Y-28187837D02*
G01*
X163105913Y-28894944D01*
X162115964Y-29884893D01*
X161408857Y-29177786D01*
X162398806Y-28187837D01*
G37*
G04 #@! TD.AperFunction*
G04 #@! TA.AperFunction,SMDPad,CuDef*
G36*
X164909036Y-25677607D02*
G01*
X165616143Y-26384714D01*
X164626194Y-27374663D01*
X163919087Y-26667556D01*
X164909036Y-25677607D01*
G37*
G04 #@! TD.AperFunction*
G04 #@! TA.AperFunction,SMDPad,CuDef*
G36*
X160811306Y-26600337D02*
G01*
X161518413Y-27307444D01*
X160528464Y-28297393D01*
X159821357Y-27590286D01*
X160811306Y-26600337D01*
G37*
G04 #@! TD.AperFunction*
G04 #@! TA.AperFunction,SMDPad,CuDef*
G36*
X163321536Y-24090107D02*
G01*
X164028643Y-24797214D01*
X163038694Y-25787163D01*
X162331587Y-25080056D01*
X163321536Y-24090107D01*
G37*
G04 #@! TD.AperFunction*
G04 #@! TA.AperFunction,SMDPad,CuDef*
G36*
X141761306Y-26600337D02*
G01*
X142468413Y-27307444D01*
X141478464Y-28297393D01*
X140771357Y-27590286D01*
X141761306Y-26600337D01*
G37*
G04 #@! TD.AperFunction*
G04 #@! TA.AperFunction,SMDPad,CuDef*
G36*
X144271536Y-24090107D02*
G01*
X144978643Y-24797214D01*
X143988694Y-25787163D01*
X143281587Y-25080056D01*
X144271536Y-24090107D01*
G37*
G04 #@! TD.AperFunction*
G04 #@! TA.AperFunction,SMDPad,CuDef*
G36*
X122711306Y-26600337D02*
G01*
X123418413Y-27307444D01*
X122428464Y-28297393D01*
X121721357Y-27590286D01*
X122711306Y-26600337D01*
G37*
G04 #@! TD.AperFunction*
G04 #@! TA.AperFunction,SMDPad,CuDef*
G36*
X125221536Y-24090107D02*
G01*
X125928643Y-24797214D01*
X124938694Y-25787163D01*
X124231587Y-25080056D01*
X125221536Y-24090107D01*
G37*
G04 #@! TD.AperFunction*
G04 #@! TA.AperFunction,SMDPad,CuDef*
G36*
X103661306Y-26600337D02*
G01*
X104368413Y-27307444D01*
X103378464Y-28297393D01*
X102671357Y-27590286D01*
X103661306Y-26600337D01*
G37*
G04 #@! TD.AperFunction*
G04 #@! TA.AperFunction,SMDPad,CuDef*
G36*
X106171536Y-24090107D02*
G01*
X106878643Y-24797214D01*
X105888694Y-25787163D01*
X105181587Y-25080056D01*
X106171536Y-24090107D01*
G37*
G04 #@! TD.AperFunction*
D11*
X209708750Y-84613750D03*
X203358750Y-87153750D03*
D15*
X79502000Y-43953400D03*
X82042000Y-43953400D03*
X84582000Y-43953400D03*
X87122000Y-43953400D03*
X89662000Y-43953400D03*
X92202000Y-43953400D03*
X94742000Y-43953400D03*
X97282000Y-43953400D03*
X99822000Y-43953400D03*
X102362000Y-43953400D03*
X104902000Y-43953400D03*
X107442000Y-43953400D03*
X107442000Y-59173400D03*
X104902000Y-59173400D03*
X102362000Y-59173400D03*
X99822000Y-59173400D03*
X97282000Y-59173400D03*
X94742000Y-59173400D03*
X92202000Y-59173400D03*
X89662000Y-59173400D03*
X87122000Y-59173400D03*
X84582000Y-59173400D03*
X82042000Y-59173400D03*
X79502000Y-59173400D03*
D11*
X152558750Y-84613750D03*
X146208750Y-87153750D03*
X133508750Y-84613750D03*
X127158750Y-87153750D03*
X209708750Y-65563750D03*
X203358750Y-68103750D03*
X190658750Y-65563750D03*
X184308750Y-68103750D03*
X171608750Y-65563750D03*
X165258750Y-68103750D03*
X152558750Y-65563750D03*
X146208750Y-68103750D03*
X133508750Y-65563750D03*
X127158750Y-68103750D03*
X200183750Y-46513750D03*
X193833750Y-49053750D03*
X162083750Y-46513750D03*
X155733750Y-49053750D03*
X143033750Y-46513750D03*
X136683750Y-49053750D03*
X123983750Y-46513750D03*
X117633750Y-49053750D03*
X104933750Y-46513750D03*
X98583750Y-49053750D03*
X85883750Y-46513750D03*
X79533750Y-49053750D03*
X195421250Y-27463750D03*
X189071250Y-30003750D03*
X176371250Y-27463750D03*
X170021250Y-30003750D03*
X157321250Y-27463750D03*
X150971250Y-30003750D03*
X138271250Y-27463750D03*
X131921250Y-30003750D03*
X119221250Y-27463750D03*
X112871250Y-30003750D03*
X100171250Y-27463750D03*
X93821250Y-30003750D03*
D16*
X103505000Y-27463750D02*
X103519885Y-27448865D01*
X100171250Y-27463750D02*
X103505000Y-27463750D01*
X201280115Y-24938635D02*
X200774999Y-25443751D01*
X163180115Y-24938635D02*
X164767615Y-26526135D01*
X163180115Y-24938635D02*
X106030115Y-24938635D01*
X188567363Y-24938635D02*
X201280115Y-24938635D01*
X180769545Y-30893760D02*
X182612238Y-30893760D01*
X182612238Y-30893760D02*
X188567363Y-24938635D01*
X177067251Y-26013749D02*
X180081240Y-29027738D01*
X180081240Y-30205455D02*
X180769545Y-30893760D01*
X165280001Y-26013749D02*
X177067251Y-26013749D01*
X180081240Y-29027738D02*
X180081240Y-30205455D01*
X164767615Y-26526135D02*
X165280001Y-26013749D01*
X201719751Y-25378271D02*
X201280115Y-24938635D01*
X203993750Y-44450000D02*
X201719751Y-42176001D01*
X203993750Y-52099752D02*
X203993750Y-44450000D01*
X194974752Y-61118750D02*
X203993750Y-52099752D01*
X118411399Y-58086399D02*
X121443750Y-61118750D01*
X121443750Y-61118750D02*
X194974752Y-61118750D01*
X103449001Y-58086399D02*
X118411399Y-58086399D01*
X201719751Y-42176001D02*
X201719751Y-25378271D01*
X102362000Y-59173400D02*
X103449001Y-58086399D01*
X122555000Y-27463750D02*
X122569885Y-27448865D01*
X119221250Y-27463750D02*
X122555000Y-27463750D01*
X141605000Y-27463750D02*
X141619885Y-27448865D01*
X138271250Y-27463750D02*
X141605000Y-27463750D01*
X160655000Y-27463750D02*
X160669885Y-27448865D01*
X157321250Y-27463750D02*
X160655000Y-27463750D01*
X170415248Y-27463750D02*
X176371250Y-27463750D01*
X168842633Y-29036365D02*
X170415248Y-27463750D01*
X162257385Y-29036365D02*
X168842633Y-29036365D01*
X198755000Y-27463750D02*
X198769885Y-27448865D01*
X195421250Y-27463750D02*
X198755000Y-27463750D01*
X101274999Y-42206251D02*
X102206250Y-41275000D01*
X101274999Y-49408503D02*
X101274999Y-42206251D01*
X92597103Y-58086399D02*
X101274999Y-49408503D01*
X88574999Y-58651639D02*
X89140239Y-58086399D01*
X88574999Y-59329163D02*
X88574999Y-58651639D01*
X89140239Y-58086399D02*
X92597103Y-58086399D01*
X84060239Y-60260401D02*
X87643761Y-60260401D01*
X83494999Y-59695161D02*
X84060239Y-60260401D01*
X85883750Y-52485724D02*
X83494999Y-54874475D01*
X83494999Y-54874475D02*
X83494999Y-59695161D01*
X87643761Y-60260401D02*
X88574999Y-59329163D01*
X85883750Y-46513750D02*
X85883750Y-52485724D01*
X110460230Y-41275000D02*
X113173865Y-43988635D01*
X105756250Y-41275000D02*
X110460230Y-41275000D01*
X105756250Y-42267650D02*
X105756250Y-41275000D01*
X107442000Y-43953400D02*
X105756250Y-42267650D01*
X186992615Y-43988635D02*
X188580115Y-45576135D01*
X186992615Y-43988635D02*
X113173865Y-43988635D01*
X110648750Y-46513750D02*
X110663635Y-46498865D01*
X104933750Y-46513750D02*
X110648750Y-46513750D01*
X127317500Y-46513750D02*
X127332385Y-46498865D01*
X123983750Y-46513750D02*
X127317500Y-46513750D01*
X146367500Y-46513750D02*
X146382385Y-46498865D01*
X143033750Y-46513750D02*
X146367500Y-46513750D01*
X165417500Y-46513750D02*
X165432385Y-46498865D01*
X162083750Y-46513750D02*
X165417500Y-46513750D01*
X184467500Y-46513750D02*
X184482385Y-46498865D01*
X181133750Y-46513750D02*
X184467500Y-46513750D01*
X194227748Y-46513750D02*
X200183750Y-46513750D01*
X192655133Y-48086365D02*
X194227748Y-46513750D01*
X186069885Y-48086365D02*
X192655133Y-48086365D01*
X104948635Y-65548865D02*
X104933750Y-65563750D01*
X117807385Y-65548865D02*
X104948635Y-65548865D01*
X120317615Y-63038635D02*
X196517615Y-63038635D01*
X214993740Y-63612510D02*
X197091490Y-63612510D01*
X197091490Y-63612510D02*
X196517615Y-63038635D01*
X215567615Y-63038635D02*
X214993740Y-63612510D01*
X120317615Y-63038635D02*
X119566386Y-63038635D01*
X116452380Y-59173400D02*
X107442000Y-59173400D01*
X120317615Y-63038635D02*
X116452380Y-59173400D01*
X136842500Y-65563750D02*
X136857385Y-65548865D01*
X133508750Y-65563750D02*
X136842500Y-65563750D01*
X155892500Y-65563750D02*
X155907385Y-65548865D01*
X152558750Y-65563750D02*
X155892500Y-65563750D01*
X174942500Y-65563750D02*
X174957385Y-65548865D01*
X171608750Y-65563750D02*
X174942500Y-65563750D01*
X193992500Y-65563750D02*
X194007385Y-65548865D01*
X190658750Y-65563750D02*
X193992500Y-65563750D01*
X213042500Y-65563750D02*
X213057385Y-65548865D01*
X209708750Y-65563750D02*
X213042500Y-65563750D01*
X136842500Y-84613750D02*
X136857385Y-84598865D01*
X133508750Y-84613750D02*
X136842500Y-84613750D01*
X139367615Y-82088635D02*
X158417615Y-82088635D01*
X196517615Y-82088635D02*
X215567615Y-82088635D01*
X126464751Y-69443749D02*
X139109637Y-82088635D01*
X115899245Y-60069849D02*
X125273145Y-69443749D01*
X113186927Y-60069849D02*
X115899245Y-60069849D01*
X125273145Y-69443749D02*
X126464751Y-69443749D01*
X112996375Y-60260401D02*
X113186927Y-60069849D01*
X139109637Y-82088635D02*
X139367615Y-82088635D01*
X105989001Y-60260401D02*
X112996375Y-60260401D01*
X104902000Y-59173400D02*
X105989001Y-60260401D01*
X158417615Y-82088635D02*
X161386401Y-79119849D01*
X196120740Y-81691760D02*
X196517615Y-82088635D01*
X193548829Y-79119849D02*
X196120740Y-81691760D01*
X161386401Y-79119849D02*
X193548829Y-79119849D01*
X195288729Y-80859749D02*
X196120740Y-81691760D01*
X155892500Y-84613750D02*
X155907385Y-84598865D01*
X152558750Y-84613750D02*
X155892500Y-84613750D01*
X193992500Y-84613750D02*
X194007385Y-84598865D01*
X181133750Y-84613750D02*
X193992500Y-84613750D01*
X213042500Y-84613750D02*
X213057385Y-84598865D01*
X209708750Y-84613750D02*
X213042500Y-84613750D01*
X171781249Y-42793751D02*
X181256250Y-33318750D01*
X118714499Y-42793751D02*
X171781249Y-42793751D01*
X116370747Y-40449999D02*
X118714499Y-42793751D01*
X104796249Y-40449999D02*
X116370747Y-40449999D01*
X86034999Y-42866399D02*
X87122000Y-43953400D01*
X78980239Y-42866399D02*
X86034999Y-42866399D01*
X79430248Y-60710410D02*
X77063749Y-58343911D01*
X77063749Y-58343911D02*
X77063749Y-44782889D01*
X94220239Y-58086399D02*
X93289001Y-59017637D01*
X104712651Y-52706823D02*
X99333075Y-58086399D01*
X104712651Y-50480677D02*
X104712651Y-52706823D01*
X99333075Y-58086399D02*
X94220239Y-58086399D01*
X103483749Y-49251775D02*
X104712651Y-50480677D01*
X77063749Y-44782889D02*
X78980239Y-42866399D01*
X103483749Y-41762499D02*
X103483749Y-49251775D01*
X104796249Y-40449999D02*
X103483749Y-41762499D01*
X93289001Y-63019223D02*
X93289001Y-59157751D01*
X89374427Y-64707651D02*
X91600573Y-64707651D01*
X91600573Y-64707651D02*
X93289001Y-63019223D01*
X85377186Y-60710410D02*
X89374427Y-64707651D01*
X79430248Y-60710410D02*
X85377186Y-60710410D01*
X93289001Y-59157751D02*
X93289001Y-59695161D01*
X93289001Y-59017637D02*
X93289001Y-59157751D01*
X178702597Y-23765097D02*
X181256250Y-26318750D01*
X91351249Y-30327749D02*
X97913901Y-23765097D01*
X91351249Y-38396153D02*
X91351249Y-30327749D01*
X97913901Y-23765097D02*
X178702597Y-23765097D01*
X88392212Y-44291950D02*
X88392212Y-41355190D01*
X87643761Y-45040401D02*
X88392212Y-44291950D01*
X85211097Y-45040401D02*
X87643761Y-45040401D01*
X88392212Y-41355190D02*
X91351249Y-38396153D01*
X81024849Y-49226649D02*
X85211097Y-45040401D01*
X81024849Y-58156249D02*
X81024849Y-49226649D01*
X82042000Y-59173400D02*
X81024849Y-58156249D01*
X87122000Y-59173400D02*
X84582000Y-59173400D01*
M02*
