G04 #@! TF.GenerationSoftware,KiCad,Pcbnew,(5.1.10-1-10_14)*
G04 #@! TF.CreationDate,2021-09-11T19:21:02+10:00*
G04 #@! TF.ProjectId,WTL-Split-Left,57544c2d-5370-46c6-9974-2d4c6566742e,rev?*
G04 #@! TF.SameCoordinates,Original*
G04 #@! TF.FileFunction,Profile,NP*
%FSLAX46Y46*%
G04 Gerber Fmt 4.6, Leading zero omitted, Abs format (unit mm)*
G04 Created by KiCad (PCBNEW (5.1.10-1-10_14)) date 2021-09-11 19:21:02*
%MOMM*%
%LPD*%
G01*
G04 APERTURE LIST*
G04 #@! TA.AperFunction,Profile*
%ADD10C,0.050000*%
G04 #@! TD*
G04 APERTURE END LIST*
D10*
X205581250Y-42068750D02*
X203993750Y-42068750D01*
X207168750Y-59531250D02*
X207168750Y-43656250D01*
X208756250Y-61118750D02*
X215106250Y-61118750D01*
X208756250Y-61118750D02*
G75*
G02*
X207168750Y-59531250I0J1587500D01*
G01*
X205581250Y-42068750D02*
G75*
G02*
X207168750Y-43656250I0J-1587500D01*
G01*
X121443750Y-97631250D02*
X121443750Y-99218750D01*
X216693750Y-99218750D02*
X216693750Y-62706250D01*
X123031250Y-100806250D02*
X215106250Y-100806250D01*
X121443750Y-83343750D02*
X121443750Y-97631250D01*
X84931250Y-81756250D02*
X119856250Y-81756250D01*
X83343750Y-78581250D02*
X83343750Y-80168750D01*
X83343750Y-62706250D02*
X83343750Y-78581250D01*
X75406250Y-61118750D02*
X81756250Y-61118750D01*
X73818750Y-43656250D02*
X73818750Y-59531250D01*
X86518750Y-42068750D02*
X75406250Y-42068750D01*
X88106250Y-24606250D02*
X88106250Y-40481250D01*
X202406250Y-24606250D02*
X202406250Y-40481250D01*
X203993750Y-42068750D02*
G75*
G02*
X202406250Y-40481250I0J1587500D01*
G01*
X119856250Y-81756250D02*
G75*
G02*
X121443750Y-83343750I0J-1587500D01*
G01*
X81756250Y-61118750D02*
G75*
G02*
X83343750Y-62706250I0J-1587500D01*
G01*
X88106250Y-40481250D02*
G75*
G02*
X86518750Y-42068750I-1587500J0D01*
G01*
X200818750Y-23018750D02*
X89693750Y-23018750D01*
X200818750Y-23018750D02*
G75*
G02*
X202406250Y-24606250I0J-1587500D01*
G01*
X215106250Y-61118750D02*
G75*
G02*
X216693750Y-62706250I0J-1587500D01*
G01*
X216693750Y-99218750D02*
G75*
G02*
X215106250Y-100806250I-1587500J0D01*
G01*
X123031250Y-100806250D02*
G75*
G02*
X121443750Y-99218750I0J1587500D01*
G01*
X84931250Y-81756250D02*
G75*
G02*
X83343750Y-80168750I0J1587500D01*
G01*
X75406250Y-61118750D02*
G75*
G02*
X73818750Y-59531250I0J1587500D01*
G01*
X73818750Y-43656250D02*
G75*
G02*
X75406250Y-42068750I1587500J0D01*
G01*
X88106250Y-24606250D02*
G75*
G02*
X89693750Y-23018750I1587500J0D01*
G01*
M02*
