M48
; DRILL file {KiCad (5.1.10-1-10_14)} date Monday, October 04, 2021 at 09:01:25 PM
; FORMAT={-:-/ absolute / inch / decimal}
; #@! TF.CreationDate,2021-10-04T21:01:25+10:00
; #@! TF.GenerationSoftware,Kicad,Pcbnew,(5.1.10-1-10_14)
; #@! TF.FileFunction,NonPlated,1,2,NPTH
FMAT,2
INCH
T1C0.0454
T2C0.0472
T3C0.0689
T4C0.1200
T5C0.1570
%
G90
G05
T1
X2.0Y-1.375
X2.5625Y-4.3125
X7.125Y-1.5312
T2
X2.6875Y-1.3716
X2.6875Y-1.6471
T3
X2.1125Y-1.6875
X2.3Y-2.4375
X2.5125Y-1.6875
X2.675Y-3.1875
X2.7Y-2.4375
X2.8625Y-1.6875
X3.05Y-2.4375
X3.05Y-3.9375
X3.075Y-3.1875
X3.2625Y-1.6875
X3.425Y-3.1875
X3.45Y-2.4375
X3.45Y-3.9375
X3.6125Y-1.6875
X3.8Y-2.4375
X3.825Y-3.1875
X4.0125Y-1.6875
X4.175Y-3.1875
X4.175Y-3.9375
X4.2Y-2.4375
X4.3625Y-1.6875
X4.55Y-2.4375
X4.575Y-3.1875
X4.575Y-3.9375
X4.7625Y-1.6875
X4.925Y-3.1875
X4.95Y-2.4375
X5.1125Y-1.6875
X5.3Y-2.4375
X5.325Y-3.1875
X5.5125Y-1.6875
X5.675Y-3.1875
X5.7Y-2.4375
X5.8625Y-1.6875
X6.05Y-2.4375
X6.075Y-3.1875
X6.2625Y-1.6875
X6.425Y-3.1875
X6.45Y-2.4375
X6.6125Y-1.6875
X6.8Y-2.4375
X6.825Y-3.1875
X7.0125Y-1.6875
X7.2Y-2.4375
T4
X2.7812Y-4.2125
X3.7188Y-4.2125
T5
X2.3125Y-1.6875
X2.5Y-2.4375
X2.7812Y-3.6125
X2.875Y-3.1875
X3.0625Y-1.6875
X3.25Y-2.4375
X3.25Y-3.9375
X3.625Y-3.1875
X3.7188Y-3.6125
X3.8125Y-1.6875
X4.0Y-2.4375
X4.375Y-3.1875
X4.375Y-3.9375
X4.5625Y-1.6875
X4.75Y-2.4375
X5.125Y-3.1875
X5.3125Y-1.6875
X5.5Y-2.4375
X5.875Y-3.1875
X6.0625Y-1.6875
X6.25Y-2.4375
X6.625Y-3.1875
X6.8125Y-1.6875
X7.0Y-2.4375
T0
M30
