G04 #@! TF.GenerationSoftware,KiCad,Pcbnew,(5.1.10-1-10_14)*
G04 #@! TF.CreationDate,2021-10-04T21:07:58+10:00*
G04 #@! TF.ProjectId,WTL-Split-Right,57544c2d-5370-46c6-9974-2d5269676874,rev?*
G04 #@! TF.SameCoordinates,Original*
G04 #@! TF.FileFunction,Copper,L1,Top*
G04 #@! TF.FilePolarity,Positive*
%FSLAX46Y46*%
G04 Gerber Fmt 4.6, Leading zero omitted, Abs format (unit mm)*
G04 Created by KiCad (PCBNEW (5.1.10-1-10_14)) date 2021-10-04 21:07:58*
%MOMM*%
%LPD*%
G01*
G04 APERTURE LIST*
G04 #@! TA.AperFunction,ComponentPad*
%ADD10C,2.250000*%
G04 #@! TD*
G04 #@! TA.AperFunction,ComponentPad*
%ADD11O,1.700000X2.500000*%
G04 #@! TD*
G04 #@! TA.AperFunction,ComponentPad*
%ADD12C,1.524000*%
G04 #@! TD*
G04 #@! TA.AperFunction,Conductor*
%ADD13C,0.250000*%
G04 #@! TD*
G04 APERTURE END LIST*
D10*
X85090000Y-94932500D03*
X78740000Y-97472500D03*
D11*
X70362500Y-45137500D03*
X66162500Y-43637500D03*
X66162500Y-39637500D03*
X66162500Y-36637500D03*
D10*
X113665000Y-94932500D03*
X107315000Y-97472500D03*
X170815000Y-75882500D03*
X164465000Y-78422500D03*
X151765000Y-75882500D03*
X145415000Y-78422500D03*
X132715000Y-75882500D03*
X126365000Y-78422500D03*
X113665000Y-75882500D03*
X107315000Y-78422500D03*
X94615000Y-75882500D03*
X88265000Y-78422500D03*
X75565000Y-75882500D03*
X69215000Y-78422500D03*
X180340000Y-56832500D03*
X173990000Y-59372500D03*
X161290000Y-56832500D03*
X154940000Y-59372500D03*
X142240000Y-56832500D03*
X135890000Y-59372500D03*
X123190000Y-56832500D03*
X116840000Y-59372500D03*
X104140000Y-56832500D03*
X97790000Y-59372500D03*
X85090000Y-56832500D03*
X78740000Y-59372500D03*
X66040000Y-56832500D03*
X59690000Y-59372500D03*
X175577500Y-37782500D03*
X169227500Y-40322500D03*
X156527500Y-37782500D03*
X150177500Y-40322500D03*
X137477500Y-37782500D03*
X131127500Y-40322500D03*
X118427500Y-37782500D03*
X112077500Y-40322500D03*
X99377500Y-37782500D03*
X93027500Y-40322500D03*
X80327500Y-37782500D03*
X73977500Y-40322500D03*
X61277500Y-37782500D03*
X54927500Y-40322500D03*
D12*
X181959250Y-69521100D03*
X179419250Y-69521100D03*
X176879250Y-69521100D03*
X174339250Y-69521100D03*
X171799250Y-69521100D03*
X169259250Y-69521100D03*
X166719250Y-69521100D03*
X164179250Y-69521100D03*
X161639250Y-69521100D03*
X159099250Y-69521100D03*
X156559250Y-69521100D03*
X154019250Y-69521100D03*
X154019250Y-54301100D03*
X156559250Y-54301100D03*
X159099250Y-54301100D03*
X161639250Y-54301100D03*
X164179250Y-54301100D03*
X166719250Y-54301100D03*
X169259250Y-54301100D03*
X171799250Y-54301100D03*
X174339250Y-54301100D03*
X176879250Y-54301100D03*
X179419250Y-54301100D03*
X181959250Y-54301100D03*
D13*
X66162500Y-43637500D02*
X66237510Y-43562490D01*
X172479473Y-38872499D02*
X176879250Y-43272276D01*
X167777499Y-39626499D02*
X168531499Y-38872499D01*
X167777499Y-39687500D02*
X167777499Y-39626499D01*
X148727499Y-39626499D02*
X149481499Y-38872499D01*
X151606250Y-39687500D02*
X167777499Y-39687500D01*
X148727499Y-39687500D02*
X148727499Y-39626499D01*
X132556250Y-39687500D02*
X148727499Y-39687500D01*
X131741249Y-38872499D02*
X132556250Y-39687500D01*
X130431499Y-38872499D02*
X131741249Y-38872499D01*
X129677499Y-39687500D02*
X129677499Y-39626499D01*
X110627499Y-39626499D02*
X111381499Y-38872499D01*
X94456250Y-39687500D02*
X110627499Y-39687500D01*
X92096251Y-38872499D02*
X93641249Y-38872499D01*
X79271497Y-38872499D02*
X80086498Y-39687500D01*
X111381499Y-38872499D02*
X112691249Y-38872499D01*
X110627499Y-39687500D02*
X110627499Y-39626499D01*
X150791249Y-38872499D02*
X151606250Y-39687500D01*
X93641249Y-38872499D02*
X94456250Y-39687500D01*
X113506250Y-39687500D02*
X129677499Y-39687500D01*
X112691249Y-38872499D02*
X113506250Y-39687500D01*
X91281250Y-39687500D02*
X92096251Y-38872499D01*
X80086498Y-39687500D02*
X91281250Y-39687500D01*
X149481499Y-38872499D02*
X150791249Y-38872499D01*
X129677499Y-39626499D02*
X130431499Y-38872499D01*
X168531499Y-38872499D02*
X172479473Y-38872499D01*
X66927501Y-38872499D02*
X79271497Y-38872499D01*
X66162500Y-39637500D02*
X66927501Y-38872499D01*
X176879250Y-43272276D02*
X176879250Y-54301100D01*
X181768750Y-54110600D02*
X181959250Y-54301100D01*
X66162500Y-36637500D02*
X66162500Y-35568498D01*
X174415992Y-34474990D02*
X181959250Y-42018248D01*
X72838600Y-34474990D02*
X174415992Y-34474990D01*
X181959250Y-42018248D02*
X181959250Y-54301100D01*
X70676090Y-36637500D02*
X72838600Y-34474990D01*
X66162500Y-36637500D02*
X70676090Y-36637500D01*
X54927500Y-54610000D02*
X59690000Y-59372500D01*
X54927500Y-40322500D02*
X54927500Y-54610000D01*
X166719250Y-74022248D02*
X166719250Y-69521100D01*
X155660060Y-85081438D02*
X166719250Y-74022248D01*
X121293562Y-85081438D02*
X155660060Y-85081438D01*
X120299990Y-94141508D02*
X120299990Y-86075010D01*
X77211129Y-102331401D02*
X112110097Y-102331401D01*
X112110097Y-102331401D02*
X120299990Y-94141508D01*
X63850010Y-88970282D02*
X77211129Y-102331401D01*
X63850010Y-71787510D02*
X63850010Y-88970282D01*
X120299990Y-86075010D02*
X121293562Y-85081438D01*
X59690000Y-67627500D02*
X63850010Y-71787510D01*
X59690000Y-59372500D02*
X59690000Y-67627500D01*
X73977500Y-54610000D02*
X78740000Y-59372500D01*
X73977500Y-40322500D02*
X73977500Y-54610000D01*
X78740000Y-68897500D02*
X69215000Y-78422500D01*
X78740000Y-59372500D02*
X78740000Y-68897500D01*
X164179250Y-74773482D02*
X164179250Y-69521100D01*
X154321303Y-84631429D02*
X164179250Y-74773482D01*
X121107160Y-84631430D02*
X122537320Y-84631430D01*
X112214999Y-93523591D02*
X121107160Y-84631430D01*
X108011001Y-98922501D02*
X112214999Y-94718503D01*
X106618999Y-98922501D02*
X108011001Y-98922501D01*
X106121498Y-98425000D02*
X106618999Y-98922501D01*
X78740000Y-97472500D02*
X104516616Y-97472500D01*
X120949820Y-84631430D02*
X122537320Y-84631430D01*
X112214999Y-94718503D02*
X112214999Y-93523591D01*
X105469116Y-98425000D02*
X106121498Y-98425000D01*
X104516616Y-97472500D02*
X105469116Y-98425000D01*
X122537320Y-84631430D02*
X154321303Y-84631429D01*
X78740000Y-96421776D02*
X78740000Y-97472500D01*
X69215000Y-86896776D02*
X78740000Y-96421776D01*
X69215000Y-78422500D02*
X69215000Y-86896776D01*
X93027500Y-54610000D02*
X97790000Y-59372500D01*
X93027500Y-40322500D02*
X93027500Y-54610000D01*
X97790000Y-68897500D02*
X88265000Y-78422500D01*
X105153026Y-97472500D02*
X107315000Y-97472500D01*
X88265000Y-80584474D02*
X105153026Y-97472500D01*
X88265000Y-78422500D02*
X88265000Y-80584474D01*
X161639250Y-76677072D02*
X154134902Y-84181420D01*
X161639250Y-69521100D02*
X161639250Y-76677072D01*
X97790000Y-74483502D02*
X97790000Y-68103750D01*
X107487918Y-84181420D02*
X97790000Y-74483502D01*
X154134902Y-84181420D02*
X107487918Y-84181420D01*
X97790000Y-68103750D02*
X97790000Y-68897500D01*
X97790000Y-59372500D02*
X97790000Y-68103750D01*
X112077500Y-54610000D02*
X116840000Y-59372500D01*
X112077500Y-40322500D02*
X112077500Y-54610000D01*
X116840000Y-68897500D02*
X107315000Y-78422500D01*
X116840000Y-59372500D02*
X116840000Y-68897500D01*
X159099250Y-78580662D02*
X159099250Y-69521100D01*
X153948502Y-83731410D02*
X159099250Y-78580662D01*
X110461936Y-83731410D02*
X153948502Y-83731410D01*
X107315000Y-80584474D02*
X110461936Y-83731410D01*
X107315000Y-78422500D02*
X107315000Y-80584474D01*
X131127500Y-54610000D02*
X135890000Y-59372500D01*
X131127500Y-40322500D02*
X131127500Y-54610000D01*
X135890000Y-68897500D02*
X126365000Y-78422500D01*
X135890000Y-59372500D02*
X135890000Y-68897500D01*
X156559250Y-80484252D02*
X156559250Y-69521100D01*
X153762101Y-83281401D02*
X156559250Y-80484252D01*
X129061927Y-83281401D02*
X153762101Y-83281401D01*
X126365000Y-80584474D02*
X129061927Y-83281401D01*
X126365000Y-78422500D02*
X126365000Y-80584474D01*
X150177500Y-73660000D02*
X145415000Y-78422500D01*
X150177500Y-40322500D02*
X150177500Y-54610000D01*
X150177500Y-54610000D02*
X154940000Y-59372500D01*
X150177500Y-54610000D02*
X150177500Y-73660000D01*
X164179250Y-56089252D02*
X164179250Y-54301100D01*
X160896002Y-59372500D02*
X164179250Y-56089252D01*
X154940000Y-59372500D02*
X160896002Y-59372500D01*
X170352499Y-72535001D02*
X164465000Y-78422500D01*
X169227500Y-40322500D02*
X170352499Y-41447499D01*
X170352499Y-55072501D02*
X170352499Y-55734999D01*
X170352499Y-55072501D02*
X170352499Y-72535001D01*
X170352499Y-41447499D02*
X170352499Y-55072501D01*
X167806251Y-55388101D02*
X170005601Y-55388101D01*
X166719250Y-54301100D02*
X167806251Y-55388101D01*
X170815000Y-56197500D02*
X173990000Y-59372500D01*
X170005601Y-55388101D02*
X170815000Y-56197500D01*
X170352499Y-55734999D02*
X170815000Y-56197500D01*
M02*
