G04 #@! TF.GenerationSoftware,KiCad,Pcbnew,(5.1.10-1-10_14)*
G04 #@! TF.CreationDate,2021-09-05T18:36:36+10:00*
G04 #@! TF.ProjectId,WTL-Split-Right,57544c2d-5370-46c6-9974-2d5269676874,rev?*
G04 #@! TF.SameCoordinates,Original*
G04 #@! TF.FileFunction,Copper,L2,Bot*
G04 #@! TF.FilePolarity,Positive*
%FSLAX46Y46*%
G04 Gerber Fmt 4.6, Leading zero omitted, Abs format (unit mm)*
G04 Created by KiCad (PCBNEW (5.1.10-1-10_14)) date 2021-09-05 18:36:36*
%MOMM*%
%LPD*%
G01*
G04 APERTURE LIST*
G04 #@! TA.AperFunction,ComponentPad*
%ADD10O,1.700000X2.500000*%
G04 #@! TD*
G04 #@! TA.AperFunction,SMDPad,CuDef*
%ADD11C,0.100000*%
G04 #@! TD*
G04 #@! TA.AperFunction,SMDPad,CuDef*
%ADD12R,1.400000X1.000000*%
G04 #@! TD*
G04 #@! TA.AperFunction,SMDPad,CuDef*
%ADD13R,1.000000X1.400000*%
G04 #@! TD*
G04 #@! TA.AperFunction,ComponentPad*
%ADD14C,2.250000*%
G04 #@! TD*
G04 #@! TA.AperFunction,ComponentPad*
%ADD15C,1.524000*%
G04 #@! TD*
G04 #@! TA.AperFunction,ViaPad*
%ADD16C,0.800000*%
G04 #@! TD*
G04 #@! TA.AperFunction,Conductor*
%ADD17C,0.250000*%
G04 #@! TD*
G04 APERTURE END LIST*
D10*
X70362500Y-45137500D03*
X66162500Y-43637500D03*
X66162500Y-39637500D03*
X66162500Y-36637500D03*
G04 #@! TA.AperFunction,SMDPad,CuDef*
D11*
G36*
X117155056Y-94069087D02*
G01*
X117862163Y-94776194D01*
X116872214Y-95766143D01*
X116165107Y-95059036D01*
X117155056Y-94069087D01*
G37*
G04 #@! TD.AperFunction*
G04 #@! TA.AperFunction,SMDPad,CuDef*
G36*
X119665286Y-91558857D02*
G01*
X120372393Y-92265964D01*
X119382444Y-93255913D01*
X118675337Y-92548806D01*
X119665286Y-91558857D01*
G37*
G04 #@! TD.AperFunction*
G04 #@! TA.AperFunction,SMDPad,CuDef*
G36*
X98105056Y-94069087D02*
G01*
X98812163Y-94776194D01*
X97822214Y-95766143D01*
X97115107Y-95059036D01*
X98105056Y-94069087D01*
G37*
G04 #@! TD.AperFunction*
G04 #@! TA.AperFunction,SMDPad,CuDef*
G36*
X100615286Y-91558857D02*
G01*
X101322393Y-92265964D01*
X100332444Y-93255913D01*
X99625337Y-92548806D01*
X100615286Y-91558857D01*
G37*
G04 #@! TD.AperFunction*
G04 #@! TA.AperFunction,SMDPad,CuDef*
G36*
X173511306Y-73431587D02*
G01*
X174218413Y-74138694D01*
X173228464Y-75128643D01*
X172521357Y-74421536D01*
X173511306Y-73431587D01*
G37*
G04 #@! TD.AperFunction*
G04 #@! TA.AperFunction,SMDPad,CuDef*
G36*
X176021536Y-70921357D02*
G01*
X176728643Y-71628464D01*
X175738694Y-72618413D01*
X175031587Y-71911306D01*
X176021536Y-70921357D01*
G37*
G04 #@! TD.AperFunction*
G04 #@! TA.AperFunction,SMDPad,CuDef*
G36*
X155255056Y-75019087D02*
G01*
X155962163Y-75726194D01*
X154972214Y-76716143D01*
X154265107Y-76009036D01*
X155255056Y-75019087D01*
G37*
G04 #@! TD.AperFunction*
G04 #@! TA.AperFunction,SMDPad,CuDef*
G36*
X157765286Y-72508857D02*
G01*
X158472393Y-73215964D01*
X157482444Y-74205913D01*
X156775337Y-73498806D01*
X157765286Y-72508857D01*
G37*
G04 #@! TD.AperFunction*
G04 #@! TA.AperFunction,SMDPad,CuDef*
G36*
X136205056Y-75019087D02*
G01*
X136912163Y-75726194D01*
X135922214Y-76716143D01*
X135215107Y-76009036D01*
X136205056Y-75019087D01*
G37*
G04 #@! TD.AperFunction*
G04 #@! TA.AperFunction,SMDPad,CuDef*
G36*
X138715286Y-72508857D02*
G01*
X139422393Y-73215964D01*
X138432444Y-74205913D01*
X137725337Y-73498806D01*
X138715286Y-72508857D01*
G37*
G04 #@! TD.AperFunction*
G04 #@! TA.AperFunction,SMDPad,CuDef*
G36*
X117155056Y-75019087D02*
G01*
X117862163Y-75726194D01*
X116872214Y-76716143D01*
X116165107Y-76009036D01*
X117155056Y-75019087D01*
G37*
G04 #@! TD.AperFunction*
G04 #@! TA.AperFunction,SMDPad,CuDef*
G36*
X119665286Y-72508857D02*
G01*
X120372393Y-73215964D01*
X119382444Y-74205913D01*
X118675337Y-73498806D01*
X119665286Y-72508857D01*
G37*
G04 #@! TD.AperFunction*
G04 #@! TA.AperFunction,SMDPad,CuDef*
G36*
X98105056Y-75019087D02*
G01*
X98812163Y-75726194D01*
X97822214Y-76716143D01*
X97115107Y-76009036D01*
X98105056Y-75019087D01*
G37*
G04 #@! TD.AperFunction*
G04 #@! TA.AperFunction,SMDPad,CuDef*
G36*
X100615286Y-72508857D02*
G01*
X101322393Y-73215964D01*
X100332444Y-74205913D01*
X99625337Y-73498806D01*
X100615286Y-72508857D01*
G37*
G04 #@! TD.AperFunction*
G04 #@! TA.AperFunction,SMDPad,CuDef*
G36*
X79055056Y-75019087D02*
G01*
X79762163Y-75726194D01*
X78772214Y-76716143D01*
X78065107Y-76009036D01*
X79055056Y-75019087D01*
G37*
G04 #@! TD.AperFunction*
G04 #@! TA.AperFunction,SMDPad,CuDef*
G36*
X81565286Y-72508857D02*
G01*
X82272393Y-73215964D01*
X81282444Y-74205913D01*
X80575337Y-73498806D01*
X81565286Y-72508857D01*
G37*
G04 #@! TD.AperFunction*
D12*
X179575000Y-50800000D03*
X176025000Y-50800000D03*
X160525000Y-50800000D03*
X156975000Y-50800000D03*
G04 #@! TA.AperFunction,SMDPad,CuDef*
D11*
G36*
X145730056Y-55969087D02*
G01*
X146437163Y-56676194D01*
X145447214Y-57666143D01*
X144740107Y-56959036D01*
X145730056Y-55969087D01*
G37*
G04 #@! TD.AperFunction*
G04 #@! TA.AperFunction,SMDPad,CuDef*
G36*
X148240286Y-53458857D02*
G01*
X148947393Y-54165964D01*
X147957444Y-55155913D01*
X147250337Y-54448806D01*
X148240286Y-53458857D01*
G37*
G04 #@! TD.AperFunction*
G04 #@! TA.AperFunction,SMDPad,CuDef*
G36*
X126680056Y-55969087D02*
G01*
X127387163Y-56676194D01*
X126397214Y-57666143D01*
X125690107Y-56959036D01*
X126680056Y-55969087D01*
G37*
G04 #@! TD.AperFunction*
G04 #@! TA.AperFunction,SMDPad,CuDef*
G36*
X129190286Y-53458857D02*
G01*
X129897393Y-54165964D01*
X128907444Y-55155913D01*
X128200337Y-54448806D01*
X129190286Y-53458857D01*
G37*
G04 #@! TD.AperFunction*
G04 #@! TA.AperFunction,SMDPad,CuDef*
G36*
X107630056Y-55969087D02*
G01*
X108337163Y-56676194D01*
X107347214Y-57666143D01*
X106640107Y-56959036D01*
X107630056Y-55969087D01*
G37*
G04 #@! TD.AperFunction*
G04 #@! TA.AperFunction,SMDPad,CuDef*
G36*
X110140286Y-53458857D02*
G01*
X110847393Y-54165964D01*
X109857444Y-55155913D01*
X109150337Y-54448806D01*
X110140286Y-53458857D01*
G37*
G04 #@! TD.AperFunction*
G04 #@! TA.AperFunction,SMDPad,CuDef*
G36*
X88580056Y-55969087D02*
G01*
X89287163Y-56676194D01*
X88297214Y-57666143D01*
X87590107Y-56959036D01*
X88580056Y-55969087D01*
G37*
G04 #@! TD.AperFunction*
G04 #@! TA.AperFunction,SMDPad,CuDef*
G36*
X91090286Y-53458857D02*
G01*
X91797393Y-54165964D01*
X90807444Y-55155913D01*
X90100337Y-54448806D01*
X91090286Y-53458857D01*
G37*
G04 #@! TD.AperFunction*
G04 #@! TA.AperFunction,SMDPad,CuDef*
G36*
X69530056Y-55969087D02*
G01*
X70237163Y-56676194D01*
X69247214Y-57666143D01*
X68540107Y-56959036D01*
X69530056Y-55969087D01*
G37*
G04 #@! TD.AperFunction*
G04 #@! TA.AperFunction,SMDPad,CuDef*
G36*
X72040286Y-53458857D02*
G01*
X72747393Y-54165964D01*
X71757444Y-55155913D01*
X71050337Y-54448806D01*
X72040286Y-53458857D01*
G37*
G04 #@! TD.AperFunction*
G04 #@! TA.AperFunction,SMDPad,CuDef*
G36*
X179067556Y-36919087D02*
G01*
X179774663Y-37626194D01*
X178784714Y-38616143D01*
X178077607Y-37909036D01*
X179067556Y-36919087D01*
G37*
G04 #@! TD.AperFunction*
G04 #@! TA.AperFunction,SMDPad,CuDef*
G36*
X181577786Y-34408857D02*
G01*
X182284893Y-35115964D01*
X181294944Y-36105913D01*
X180587837Y-35398806D01*
X181577786Y-34408857D01*
G37*
G04 #@! TD.AperFunction*
G04 #@! TA.AperFunction,SMDPad,CuDef*
G36*
X160017556Y-36919087D02*
G01*
X160724663Y-37626194D01*
X159734714Y-38616143D01*
X159027607Y-37909036D01*
X160017556Y-36919087D01*
G37*
G04 #@! TD.AperFunction*
G04 #@! TA.AperFunction,SMDPad,CuDef*
G36*
X162527786Y-34408857D02*
G01*
X163234893Y-35115964D01*
X162244944Y-36105913D01*
X161537837Y-35398806D01*
X162527786Y-34408857D01*
G37*
G04 #@! TD.AperFunction*
G04 #@! TA.AperFunction,SMDPad,CuDef*
G36*
X140967556Y-36919087D02*
G01*
X141674663Y-37626194D01*
X140684714Y-38616143D01*
X139977607Y-37909036D01*
X140967556Y-36919087D01*
G37*
G04 #@! TD.AperFunction*
G04 #@! TA.AperFunction,SMDPad,CuDef*
G36*
X143477786Y-34408857D02*
G01*
X144184893Y-35115964D01*
X143194944Y-36105913D01*
X142487837Y-35398806D01*
X143477786Y-34408857D01*
G37*
G04 #@! TD.AperFunction*
G04 #@! TA.AperFunction,SMDPad,CuDef*
G36*
X121917556Y-36919087D02*
G01*
X122624663Y-37626194D01*
X121634714Y-38616143D01*
X120927607Y-37909036D01*
X121917556Y-36919087D01*
G37*
G04 #@! TD.AperFunction*
G04 #@! TA.AperFunction,SMDPad,CuDef*
G36*
X124427786Y-34408857D02*
G01*
X125134893Y-35115964D01*
X124144944Y-36105913D01*
X123437837Y-35398806D01*
X124427786Y-34408857D01*
G37*
G04 #@! TD.AperFunction*
G04 #@! TA.AperFunction,SMDPad,CuDef*
G36*
X102867556Y-36919087D02*
G01*
X103574663Y-37626194D01*
X102584714Y-38616143D01*
X101877607Y-37909036D01*
X102867556Y-36919087D01*
G37*
G04 #@! TD.AperFunction*
G04 #@! TA.AperFunction,SMDPad,CuDef*
G36*
X105377786Y-34408857D02*
G01*
X106084893Y-35115964D01*
X105094944Y-36105913D01*
X104387837Y-35398806D01*
X105377786Y-34408857D01*
G37*
G04 #@! TD.AperFunction*
G04 #@! TA.AperFunction,SMDPad,CuDef*
G36*
X83817556Y-36919087D02*
G01*
X84524663Y-37626194D01*
X83534714Y-38616143D01*
X82827607Y-37909036D01*
X83817556Y-36919087D01*
G37*
G04 #@! TD.AperFunction*
G04 #@! TA.AperFunction,SMDPad,CuDef*
G36*
X86327786Y-34408857D02*
G01*
X87034893Y-35115964D01*
X86044944Y-36105913D01*
X85337837Y-35398806D01*
X86327786Y-34408857D01*
G37*
G04 #@! TD.AperFunction*
D13*
X61912500Y-46643750D03*
X61912500Y-50193750D03*
D14*
X85090000Y-94932500D03*
X78740000Y-97472500D03*
X113665000Y-94932500D03*
X107315000Y-97472500D03*
X170815000Y-75882500D03*
X164465000Y-78422500D03*
X151765000Y-75882500D03*
X145415000Y-78422500D03*
X132715000Y-75882500D03*
X126365000Y-78422500D03*
X113665000Y-75882500D03*
X107315000Y-78422500D03*
X94615000Y-75882500D03*
X88265000Y-78422500D03*
X75565000Y-75882500D03*
X69215000Y-78422500D03*
X180340000Y-56832500D03*
X173990000Y-59372500D03*
X161290000Y-56832500D03*
X154940000Y-59372500D03*
X142240000Y-56832500D03*
X135890000Y-59372500D03*
X123190000Y-56832500D03*
X116840000Y-59372500D03*
X104140000Y-56832500D03*
X97790000Y-59372500D03*
X85090000Y-56832500D03*
X78740000Y-59372500D03*
X66040000Y-56832500D03*
X59690000Y-59372500D03*
X175577500Y-37782500D03*
X169227500Y-40322500D03*
X156527500Y-37782500D03*
X150177500Y-40322500D03*
X137477500Y-37782500D03*
X131127500Y-40322500D03*
X118427500Y-37782500D03*
X112077500Y-40322500D03*
X99377500Y-37782500D03*
X93027500Y-40322500D03*
X80327500Y-37782500D03*
X73977500Y-40322500D03*
X61277500Y-37782500D03*
X54927500Y-40322500D03*
D15*
X181959250Y-69521100D03*
X179419250Y-69521100D03*
X176879250Y-69521100D03*
X174339250Y-69521100D03*
X171799250Y-69521100D03*
X169259250Y-69521100D03*
X166719250Y-69521100D03*
X164179250Y-69521100D03*
X161639250Y-69521100D03*
X159099250Y-69521100D03*
X156559250Y-69521100D03*
X154019250Y-69521100D03*
X154019250Y-54301100D03*
X156559250Y-54301100D03*
X159099250Y-54301100D03*
X161639250Y-54301100D03*
X164179250Y-54301100D03*
X166719250Y-54301100D03*
X169259250Y-54301100D03*
X171799250Y-54301100D03*
X174339250Y-54301100D03*
X176879250Y-54301100D03*
X179419250Y-54301100D03*
X181959250Y-54301100D03*
D16*
X73025000Y-71437500D03*
D17*
X61277500Y-46008750D02*
X61912500Y-46643750D01*
X61277500Y-37782500D02*
X61277500Y-46008750D01*
X86186365Y-35257385D02*
X181436365Y-35257385D01*
X75427501Y-40536497D02*
X80706613Y-35257385D01*
X75427501Y-42134214D02*
X75427501Y-40536497D01*
X80706613Y-35257385D02*
X86186365Y-35257385D01*
X67367965Y-50193750D02*
X75427501Y-42134214D01*
X61912500Y-50193750D02*
X67367965Y-50193750D01*
X162386365Y-35257385D02*
X162386365Y-35386365D01*
X177226612Y-55562500D02*
X162900650Y-55562500D01*
X177966251Y-54822861D02*
X177226612Y-55562500D01*
X179317501Y-49272497D02*
X177966251Y-50623747D01*
X162900650Y-55562500D02*
X161639250Y-54301100D01*
X179317501Y-42286499D02*
X179317501Y-49272497D01*
X178693501Y-41662499D02*
X179317501Y-42286499D01*
X177311497Y-41662499D02*
X178693501Y-41662499D01*
X170906383Y-35257385D02*
X177311497Y-41662499D01*
X177966251Y-50623747D02*
X177966251Y-54822861D01*
X162386365Y-35257385D02*
X170906383Y-35257385D01*
X83661250Y-37782500D02*
X83676135Y-37767615D01*
X80327500Y-37782500D02*
X83661250Y-37782500D01*
X102711250Y-37782500D02*
X102726135Y-37767615D01*
X99377500Y-37782500D02*
X102711250Y-37782500D01*
X121761250Y-37782500D02*
X121776135Y-37767615D01*
X118427500Y-37782500D02*
X121761250Y-37782500D01*
X140811250Y-37782500D02*
X140826135Y-37767615D01*
X137477500Y-37782500D02*
X140811250Y-37782500D01*
X159861250Y-37782500D02*
X159876135Y-37767615D01*
X156527500Y-37782500D02*
X159861250Y-37782500D01*
X178911250Y-37782500D02*
X178926135Y-37767615D01*
X175577500Y-37782500D02*
X178911250Y-37782500D01*
X69373750Y-56832500D02*
X69388635Y-56817615D01*
X66040000Y-56832500D02*
X69373750Y-56832500D01*
X71898865Y-54307385D02*
X148098865Y-54307385D01*
X151606250Y-50800000D02*
X156975000Y-50800000D01*
X148098865Y-54307385D02*
X151606250Y-50800000D01*
X156975000Y-50800000D02*
X157800001Y-49974999D01*
X156975000Y-52176850D02*
X159099250Y-54301100D01*
X156975000Y-50800000D02*
X156975000Y-52176850D01*
X175199999Y-49974999D02*
X176025000Y-50800000D01*
X157800001Y-49974999D02*
X175199999Y-49974999D01*
X88423750Y-56832500D02*
X88438635Y-56817615D01*
X85090000Y-56832500D02*
X88423750Y-56832500D01*
X107473750Y-56832500D02*
X107488635Y-56817615D01*
X104140000Y-56832500D02*
X107473750Y-56832500D01*
X126523750Y-56832500D02*
X126538635Y-56817615D01*
X123190000Y-56832500D02*
X126523750Y-56832500D01*
X145573750Y-56832500D02*
X145588635Y-56817615D01*
X142240000Y-56832500D02*
X145573750Y-56832500D01*
X160525000Y-56067500D02*
X161290000Y-56832500D01*
X160525000Y-50800000D02*
X160525000Y-56067500D01*
X180506251Y-56666249D02*
X180340000Y-56832500D01*
X180506251Y-51731251D02*
X180506251Y-56666249D01*
X179575000Y-50800000D02*
X180506251Y-51731251D01*
X78898750Y-75882500D02*
X78913635Y-75867615D01*
X75565000Y-75882500D02*
X78898750Y-75882500D01*
X174713373Y-71769885D02*
X175880115Y-71769885D01*
X173125873Y-73357385D02*
X174713373Y-71769885D01*
X157623865Y-73357385D02*
X173125873Y-73357385D01*
X174861011Y-68434099D02*
X172886251Y-68434099D01*
X175526562Y-71416332D02*
X175526562Y-69099650D01*
X172886251Y-68434099D02*
X171799250Y-69521100D01*
X175526562Y-69099650D02*
X174861011Y-68434099D01*
X175880115Y-71769885D02*
X175526562Y-71416332D01*
X81423865Y-73357385D02*
X157623865Y-73357385D01*
X97948750Y-75882500D02*
X97963635Y-75867615D01*
X94615000Y-75882500D02*
X97948750Y-75882500D01*
X116998750Y-75882500D02*
X117013635Y-75867615D01*
X113665000Y-75882500D02*
X116998750Y-75882500D01*
X136048750Y-75882500D02*
X136063635Y-75867615D01*
X132715000Y-75882500D02*
X136048750Y-75882500D01*
X155098750Y-75882500D02*
X155113635Y-75867615D01*
X151765000Y-75882500D02*
X155098750Y-75882500D01*
X172417385Y-74280115D02*
X173369885Y-74280115D01*
X170815000Y-75882500D02*
X172417385Y-74280115D01*
X97948750Y-94932500D02*
X97963635Y-94917615D01*
X85090000Y-94932500D02*
X97948750Y-94932500D01*
X100473865Y-92407385D02*
X119523865Y-92407385D01*
X119523865Y-92407385D02*
X119523865Y-91613635D01*
X119523865Y-91613635D02*
X121443750Y-89693750D01*
X177449990Y-70559122D02*
X178159112Y-69850000D01*
X177449990Y-78643512D02*
X177449990Y-70559122D01*
X166399752Y-89693750D02*
X177449990Y-78643512D01*
X121443750Y-89693750D02*
X166399752Y-89693750D01*
X176951001Y-67984089D02*
X170796261Y-67984089D01*
X170796261Y-67984089D02*
X169259250Y-69521100D01*
X178159112Y-69192200D02*
X176951001Y-67984089D01*
X178159112Y-69850000D02*
X178159112Y-69192200D01*
X116998750Y-94932500D02*
X117013635Y-94917615D01*
X113665000Y-94932500D02*
X116998750Y-94932500D01*
X172422850Y-71437500D02*
X174339250Y-69521100D01*
X73025000Y-71437500D02*
X172422850Y-71437500D01*
M02*
