M48
; DRILL file {KiCad (5.1.10-1-10_14)} date Monday, October 04, 2021 at 09:01:25 PM
; FORMAT={-:-/ absolute / inch / decimal}
; #@! TF.CreationDate,2021-10-04T21:01:25+10:00
; #@! TF.GenerationSoftware,Kicad,Pcbnew,(5.1.10-1-10_14)
; #@! TF.FileFunction,Plated,1,2,PTH
FMAT,2
INCH
T1C0.0320
T2C0.0394
T3C0.0579
%
G90
G05
T1
X6.0637Y-2.1378
X6.0637Y-2.7371
X6.1638Y-2.1378
X6.1638Y-2.7371
X6.2637Y-2.1378
X6.2637Y-2.7371
X6.3637Y-2.1378
X6.3637Y-2.7371
X6.4638Y-2.1378
X6.4638Y-2.7371
X6.5637Y-2.1378
X6.5637Y-2.7371
X6.6638Y-2.1378
X6.6638Y-2.7371
X6.7637Y-2.1378
X6.7637Y-2.7371
X6.8637Y-2.1378
X6.8637Y-2.7371
X6.9638Y-2.1378
X6.9638Y-2.7371
X7.0637Y-2.1378
X7.0637Y-2.7371
X7.1637Y-2.1378
X7.1637Y-2.7371
T3
X2.1625Y-1.5875
X2.35Y-2.3375
X2.4125Y-1.4875
X2.6Y-2.2375
X2.725Y-3.0875
X2.9125Y-1.5875
X2.975Y-2.9875
X3.1Y-2.3375
X3.1Y-3.8375
X3.1625Y-1.4875
X3.35Y-2.2375
X3.35Y-3.7375
X3.475Y-3.0875
X3.6625Y-1.5875
X3.725Y-2.9875
X3.85Y-2.3375
X3.9125Y-1.4875
X4.1Y-2.2375
X4.225Y-3.0875
X4.225Y-3.8375
X4.4125Y-1.5875
X4.475Y-2.9875
X4.475Y-3.7375
X4.6Y-2.3375
X4.6625Y-1.4875
X4.85Y-2.2375
X4.975Y-3.0875
X5.1625Y-1.5875
X5.225Y-2.9875
X5.35Y-2.3375
X5.4125Y-1.4875
X5.6Y-2.2375
X5.725Y-3.0875
X5.9125Y-1.5875
X5.975Y-2.9875
X6.1Y-2.3375
X6.1625Y-1.4875
X6.35Y-2.2375
X6.475Y-3.0875
X6.6625Y-1.5875
X6.725Y-2.9875
X6.85Y-2.3375
X6.9125Y-1.4875
X7.1Y-2.2375
T2
G00X2.6048Y-1.4523
M15
G01X2.6048Y-1.4326
M16
G05
G00X2.6048Y-1.5704
M15
G01X2.6048Y-1.5507
M16
G05
G00X2.6048Y-1.7279
M15
G01X2.6048Y-1.7082
M16
G05
G00X2.7702Y-1.7869
M15
G01X2.7702Y-1.7672
M16
G05
T0
M30
