G04 #@! TF.GenerationSoftware,KiCad,Pcbnew,(5.1.10-1-10_14)*
G04 #@! TF.CreationDate,2021-09-11T19:31:01+10:00*
G04 #@! TF.ProjectId,WTL-Split-Right,57544c2d-5370-46c6-9974-2d5269676874,rev?*
G04 #@! TF.SameCoordinates,Original*
G04 #@! TF.FileFunction,Soldermask,Bot*
G04 #@! TF.FilePolarity,Negative*
%FSLAX46Y46*%
G04 Gerber Fmt 4.6, Leading zero omitted, Abs format (unit mm)*
G04 Created by KiCad (PCBNEW (5.1.10-1-10_14)) date 2021-09-11 19:31:01*
%MOMM*%
%LPD*%
G01*
G04 APERTURE LIST*
%ADD10C,1.152000*%
%ADD11O,1.700000X2.500000*%
%ADD12C,1.200000*%
%ADD13C,0.100000*%
%ADD14R,1.400000X1.000000*%
%ADD15R,1.000000X1.400000*%
%ADD16C,2.250000*%
%ADD17C,3.987800*%
%ADD18C,1.750000*%
%ADD19C,3.048000*%
%ADD20C,1.524000*%
G04 APERTURE END LIST*
D10*
X50800000Y-34925000D03*
X180975000Y-38893750D03*
X65087500Y-109537500D03*
D11*
X70362500Y-45137500D03*
X66162500Y-43637500D03*
X66162500Y-39637500D03*
X66162500Y-36637500D03*
D12*
X68262500Y-41837500D03*
X68262500Y-34837500D03*
D13*
G36*
X117155056Y-94069087D02*
G01*
X117862163Y-94776194D01*
X116872214Y-95766143D01*
X116165107Y-95059036D01*
X117155056Y-94069087D01*
G37*
G36*
X119665286Y-91558857D02*
G01*
X120372393Y-92265964D01*
X119382444Y-93255913D01*
X118675337Y-92548806D01*
X119665286Y-91558857D01*
G37*
G36*
X98105056Y-94069087D02*
G01*
X98812163Y-94776194D01*
X97822214Y-95766143D01*
X97115107Y-95059036D01*
X98105056Y-94069087D01*
G37*
G36*
X100615286Y-91558857D02*
G01*
X101322393Y-92265964D01*
X100332444Y-93255913D01*
X99625337Y-92548806D01*
X100615286Y-91558857D01*
G37*
G36*
X173511306Y-73431587D02*
G01*
X174218413Y-74138694D01*
X173228464Y-75128643D01*
X172521357Y-74421536D01*
X173511306Y-73431587D01*
G37*
G36*
X176021536Y-70921357D02*
G01*
X176728643Y-71628464D01*
X175738694Y-72618413D01*
X175031587Y-71911306D01*
X176021536Y-70921357D01*
G37*
G36*
X155255056Y-75019087D02*
G01*
X155962163Y-75726194D01*
X154972214Y-76716143D01*
X154265107Y-76009036D01*
X155255056Y-75019087D01*
G37*
G36*
X157765286Y-72508857D02*
G01*
X158472393Y-73215964D01*
X157482444Y-74205913D01*
X156775337Y-73498806D01*
X157765286Y-72508857D01*
G37*
G36*
X136205056Y-75019087D02*
G01*
X136912163Y-75726194D01*
X135922214Y-76716143D01*
X135215107Y-76009036D01*
X136205056Y-75019087D01*
G37*
G36*
X138715286Y-72508857D02*
G01*
X139422393Y-73215964D01*
X138432444Y-74205913D01*
X137725337Y-73498806D01*
X138715286Y-72508857D01*
G37*
G36*
X117155056Y-75019087D02*
G01*
X117862163Y-75726194D01*
X116872214Y-76716143D01*
X116165107Y-76009036D01*
X117155056Y-75019087D01*
G37*
G36*
X119665286Y-72508857D02*
G01*
X120372393Y-73215964D01*
X119382444Y-74205913D01*
X118675337Y-73498806D01*
X119665286Y-72508857D01*
G37*
G36*
X98105056Y-75019087D02*
G01*
X98812163Y-75726194D01*
X97822214Y-76716143D01*
X97115107Y-76009036D01*
X98105056Y-75019087D01*
G37*
G36*
X100615286Y-72508857D02*
G01*
X101322393Y-73215964D01*
X100332444Y-74205913D01*
X99625337Y-73498806D01*
X100615286Y-72508857D01*
G37*
G36*
X79055056Y-75019087D02*
G01*
X79762163Y-75726194D01*
X78772214Y-76716143D01*
X78065107Y-76009036D01*
X79055056Y-75019087D01*
G37*
G36*
X81565286Y-72508857D02*
G01*
X82272393Y-73215964D01*
X81282444Y-74205913D01*
X80575337Y-73498806D01*
X81565286Y-72508857D01*
G37*
D14*
X179575000Y-50800000D03*
X176025000Y-50800000D03*
X160525000Y-50800000D03*
X156975000Y-50800000D03*
D13*
G36*
X145730056Y-55969087D02*
G01*
X146437163Y-56676194D01*
X145447214Y-57666143D01*
X144740107Y-56959036D01*
X145730056Y-55969087D01*
G37*
G36*
X148240286Y-53458857D02*
G01*
X148947393Y-54165964D01*
X147957444Y-55155913D01*
X147250337Y-54448806D01*
X148240286Y-53458857D01*
G37*
G36*
X126680056Y-55969087D02*
G01*
X127387163Y-56676194D01*
X126397214Y-57666143D01*
X125690107Y-56959036D01*
X126680056Y-55969087D01*
G37*
G36*
X129190286Y-53458857D02*
G01*
X129897393Y-54165964D01*
X128907444Y-55155913D01*
X128200337Y-54448806D01*
X129190286Y-53458857D01*
G37*
G36*
X107630056Y-55969087D02*
G01*
X108337163Y-56676194D01*
X107347214Y-57666143D01*
X106640107Y-56959036D01*
X107630056Y-55969087D01*
G37*
G36*
X110140286Y-53458857D02*
G01*
X110847393Y-54165964D01*
X109857444Y-55155913D01*
X109150337Y-54448806D01*
X110140286Y-53458857D01*
G37*
G36*
X88580056Y-55969087D02*
G01*
X89287163Y-56676194D01*
X88297214Y-57666143D01*
X87590107Y-56959036D01*
X88580056Y-55969087D01*
G37*
G36*
X91090286Y-53458857D02*
G01*
X91797393Y-54165964D01*
X90807444Y-55155913D01*
X90100337Y-54448806D01*
X91090286Y-53458857D01*
G37*
G36*
X69530056Y-55969087D02*
G01*
X70237163Y-56676194D01*
X69247214Y-57666143D01*
X68540107Y-56959036D01*
X69530056Y-55969087D01*
G37*
G36*
X72040286Y-53458857D02*
G01*
X72747393Y-54165964D01*
X71757444Y-55155913D01*
X71050337Y-54448806D01*
X72040286Y-53458857D01*
G37*
G36*
X179067556Y-36919087D02*
G01*
X179774663Y-37626194D01*
X178784714Y-38616143D01*
X178077607Y-37909036D01*
X179067556Y-36919087D01*
G37*
G36*
X181577786Y-34408857D02*
G01*
X182284893Y-35115964D01*
X181294944Y-36105913D01*
X180587837Y-35398806D01*
X181577786Y-34408857D01*
G37*
G36*
X160017556Y-36919087D02*
G01*
X160724663Y-37626194D01*
X159734714Y-38616143D01*
X159027607Y-37909036D01*
X160017556Y-36919087D01*
G37*
G36*
X162527786Y-34408857D02*
G01*
X163234893Y-35115964D01*
X162244944Y-36105913D01*
X161537837Y-35398806D01*
X162527786Y-34408857D01*
G37*
G36*
X140967556Y-36919087D02*
G01*
X141674663Y-37626194D01*
X140684714Y-38616143D01*
X139977607Y-37909036D01*
X140967556Y-36919087D01*
G37*
G36*
X143477786Y-34408857D02*
G01*
X144184893Y-35115964D01*
X143194944Y-36105913D01*
X142487837Y-35398806D01*
X143477786Y-34408857D01*
G37*
G36*
X121917556Y-36919087D02*
G01*
X122624663Y-37626194D01*
X121634714Y-38616143D01*
X120927607Y-37909036D01*
X121917556Y-36919087D01*
G37*
G36*
X124427786Y-34408857D02*
G01*
X125134893Y-35115964D01*
X124144944Y-36105913D01*
X123437837Y-35398806D01*
X124427786Y-34408857D01*
G37*
G36*
X102867556Y-36919087D02*
G01*
X103574663Y-37626194D01*
X102584714Y-38616143D01*
X101877607Y-37909036D01*
X102867556Y-36919087D01*
G37*
G36*
X105377786Y-34408857D02*
G01*
X106084893Y-35115964D01*
X105094944Y-36105913D01*
X104387837Y-35398806D01*
X105377786Y-34408857D01*
G37*
G36*
X83817556Y-36919087D02*
G01*
X84524663Y-37626194D01*
X83534714Y-38616143D01*
X82827607Y-37909036D01*
X83817556Y-36919087D01*
G37*
G36*
X86327786Y-34408857D02*
G01*
X87034893Y-35115964D01*
X86044944Y-36105913D01*
X85337837Y-35398806D01*
X86327786Y-34408857D01*
G37*
D15*
X61912500Y-46643750D03*
X61912500Y-50193750D03*
D16*
X85090000Y-94932500D03*
D17*
X82550000Y-100012500D03*
D16*
X78740000Y-97472500D03*
D18*
X77470000Y-100012500D03*
X87630000Y-100012500D03*
D19*
X70643750Y-93027500D03*
X94456250Y-93027500D03*
D17*
X70643750Y-108267500D03*
X94456250Y-108267500D03*
D16*
X113665000Y-94932500D03*
D17*
X111125000Y-100012500D03*
D16*
X107315000Y-97472500D03*
D18*
X106045000Y-100012500D03*
X116205000Y-100012500D03*
D16*
X170815000Y-75882500D03*
D17*
X168275000Y-80962500D03*
D16*
X164465000Y-78422500D03*
D18*
X163195000Y-80962500D03*
X173355000Y-80962500D03*
D16*
X151765000Y-75882500D03*
D17*
X149225000Y-80962500D03*
D16*
X145415000Y-78422500D03*
D18*
X144145000Y-80962500D03*
X154305000Y-80962500D03*
D16*
X132715000Y-75882500D03*
D17*
X130175000Y-80962500D03*
D16*
X126365000Y-78422500D03*
D18*
X125095000Y-80962500D03*
X135255000Y-80962500D03*
D16*
X113665000Y-75882500D03*
D17*
X111125000Y-80962500D03*
D16*
X107315000Y-78422500D03*
D18*
X106045000Y-80962500D03*
X116205000Y-80962500D03*
D16*
X94615000Y-75882500D03*
D17*
X92075000Y-80962500D03*
D16*
X88265000Y-78422500D03*
D18*
X86995000Y-80962500D03*
X97155000Y-80962500D03*
D16*
X75565000Y-75882500D03*
D17*
X73025000Y-80962500D03*
D16*
X69215000Y-78422500D03*
D18*
X67945000Y-80962500D03*
X78105000Y-80962500D03*
D16*
X180340000Y-56832500D03*
D17*
X177800000Y-61912500D03*
D16*
X173990000Y-59372500D03*
D18*
X172720000Y-61912500D03*
X182880000Y-61912500D03*
D16*
X161290000Y-56832500D03*
D17*
X158750000Y-61912500D03*
D16*
X154940000Y-59372500D03*
D18*
X153670000Y-61912500D03*
X163830000Y-61912500D03*
D16*
X142240000Y-56832500D03*
D17*
X139700000Y-61912500D03*
D16*
X135890000Y-59372500D03*
D18*
X134620000Y-61912500D03*
X144780000Y-61912500D03*
D16*
X123190000Y-56832500D03*
D17*
X120650000Y-61912500D03*
D16*
X116840000Y-59372500D03*
D18*
X115570000Y-61912500D03*
X125730000Y-61912500D03*
D16*
X104140000Y-56832500D03*
D17*
X101600000Y-61912500D03*
D16*
X97790000Y-59372500D03*
D18*
X96520000Y-61912500D03*
X106680000Y-61912500D03*
D16*
X85090000Y-56832500D03*
D17*
X82550000Y-61912500D03*
D16*
X78740000Y-59372500D03*
D18*
X77470000Y-61912500D03*
X87630000Y-61912500D03*
D16*
X66040000Y-56832500D03*
D17*
X63500000Y-61912500D03*
D16*
X59690000Y-59372500D03*
D18*
X58420000Y-61912500D03*
X68580000Y-61912500D03*
D16*
X175577500Y-37782500D03*
D17*
X173037500Y-42862500D03*
D16*
X169227500Y-40322500D03*
D18*
X167957500Y-42862500D03*
X178117500Y-42862500D03*
D16*
X156527500Y-37782500D03*
D17*
X153987500Y-42862500D03*
D16*
X150177500Y-40322500D03*
D18*
X148907500Y-42862500D03*
X159067500Y-42862500D03*
D16*
X137477500Y-37782500D03*
D17*
X134937500Y-42862500D03*
D16*
X131127500Y-40322500D03*
D18*
X129857500Y-42862500D03*
X140017500Y-42862500D03*
D16*
X118427500Y-37782500D03*
D17*
X115887500Y-42862500D03*
D16*
X112077500Y-40322500D03*
D18*
X110807500Y-42862500D03*
X120967500Y-42862500D03*
D16*
X99377500Y-37782500D03*
D17*
X96837500Y-42862500D03*
D16*
X93027500Y-40322500D03*
D18*
X91757500Y-42862500D03*
X101917500Y-42862500D03*
D16*
X80327500Y-37782500D03*
D17*
X77787500Y-42862500D03*
D16*
X73977500Y-40322500D03*
D18*
X72707500Y-42862500D03*
X82867500Y-42862500D03*
D16*
X61277500Y-37782500D03*
D17*
X58737500Y-42862500D03*
D16*
X54927500Y-40322500D03*
D18*
X53657500Y-42862500D03*
X63817500Y-42862500D03*
D20*
X181959250Y-69521100D03*
X179419250Y-69521100D03*
X176879250Y-69521100D03*
X174339250Y-69521100D03*
X171799250Y-69521100D03*
X169259250Y-69521100D03*
X166719250Y-69521100D03*
X164179250Y-69521100D03*
X161639250Y-69521100D03*
X159099250Y-69521100D03*
X156559250Y-69521100D03*
X154019250Y-69521100D03*
X154019250Y-54301100D03*
X156559250Y-54301100D03*
X159099250Y-54301100D03*
X161639250Y-54301100D03*
X164179250Y-54301100D03*
X166719250Y-54301100D03*
X169259250Y-54301100D03*
X171799250Y-54301100D03*
X174339250Y-54301100D03*
X176879250Y-54301100D03*
X179419250Y-54301100D03*
X181959250Y-54301100D03*
M02*
