G04 #@! TF.GenerationSoftware,KiCad,Pcbnew,(5.1.10-1-10_14)*
G04 #@! TF.CreationDate,2021-10-04T21:07:58+10:00*
G04 #@! TF.ProjectId,WTL-Split-Right,57544c2d-5370-46c6-9974-2d5269676874,rev?*
G04 #@! TF.SameCoordinates,Original*
G04 #@! TF.FileFunction,Soldermask,Bot*
G04 #@! TF.FilePolarity,Negative*
%FSLAX46Y46*%
G04 Gerber Fmt 4.6, Leading zero omitted, Abs format (unit mm)*
G04 Created by KiCad (PCBNEW (5.1.10-1-10_14)) date 2021-10-04 21:07:58*
%MOMM*%
%LPD*%
G01*
G04 APERTURE LIST*
%ADD10C,2.250000*%
%ADD11C,3.987800*%
%ADD12C,1.750000*%
%ADD13C,3.048000*%
%ADD14C,1.152000*%
%ADD15C,1.200000*%
%ADD16C,0.100000*%
%ADD17R,1.400000X1.000000*%
G04 APERTURE END LIST*
D10*
X85090000Y-94932500D03*
D11*
X82550000Y-100012500D03*
D10*
X78740000Y-97472500D03*
D12*
X77470000Y-100012500D03*
X87630000Y-100012500D03*
D13*
X70643750Y-106997500D03*
X94456250Y-106997500D03*
D11*
X70643750Y-91757500D03*
X94456250Y-91757500D03*
D14*
X50800000Y-34925000D03*
X180975000Y-38893750D03*
X65087500Y-109537500D03*
D15*
X68262500Y-41837500D03*
X68262500Y-34837500D03*
D16*
G36*
X99692556Y-95656587D02*
G01*
X100399663Y-96363694D01*
X99409714Y-97353643D01*
X98702607Y-96646536D01*
X99692556Y-95656587D01*
G37*
G36*
X102202786Y-93146357D02*
G01*
X102909893Y-93853464D01*
X101919944Y-94843413D01*
X101212837Y-94136306D01*
X102202786Y-93146357D01*
G37*
G36*
X98105056Y-94069087D02*
G01*
X98812163Y-94776194D01*
X97822214Y-95766143D01*
X97115107Y-95059036D01*
X98105056Y-94069087D01*
G37*
G36*
X100615286Y-91558857D02*
G01*
X101322393Y-92265964D01*
X100332444Y-93255913D01*
X99625337Y-92548806D01*
X100615286Y-91558857D01*
G37*
G36*
X156842556Y-76606587D02*
G01*
X157549663Y-77313694D01*
X156559714Y-78303643D01*
X155852607Y-77596536D01*
X156842556Y-76606587D01*
G37*
G36*
X159352786Y-74096357D02*
G01*
X160059893Y-74803464D01*
X159069944Y-75793413D01*
X158362837Y-75086306D01*
X159352786Y-74096357D01*
G37*
G36*
X155255056Y-75019087D02*
G01*
X155962163Y-75726194D01*
X154972214Y-76716143D01*
X154265107Y-76009036D01*
X155255056Y-75019087D01*
G37*
G36*
X157765286Y-72508857D02*
G01*
X158472393Y-73215964D01*
X157482444Y-74205913D01*
X156775337Y-73498806D01*
X157765286Y-72508857D01*
G37*
G36*
X136205056Y-75019087D02*
G01*
X136912163Y-75726194D01*
X135922214Y-76716143D01*
X135215107Y-76009036D01*
X136205056Y-75019087D01*
G37*
G36*
X138715286Y-72508857D02*
G01*
X139422393Y-73215964D01*
X138432444Y-74205913D01*
X137725337Y-73498806D01*
X138715286Y-72508857D01*
G37*
G36*
X117155056Y-75019087D02*
G01*
X117862163Y-75726194D01*
X116872214Y-76716143D01*
X116165107Y-76009036D01*
X117155056Y-75019087D01*
G37*
G36*
X119665286Y-72508857D02*
G01*
X120372393Y-73215964D01*
X119382444Y-74205913D01*
X118675337Y-73498806D01*
X119665286Y-72508857D01*
G37*
G36*
X98105056Y-75019087D02*
G01*
X98812163Y-75726194D01*
X97822214Y-76716143D01*
X97115107Y-76009036D01*
X98105056Y-75019087D01*
G37*
G36*
X100615286Y-72508857D02*
G01*
X101322393Y-73215964D01*
X100332444Y-74205913D01*
X99625337Y-73498806D01*
X100615286Y-72508857D01*
G37*
G36*
X79055056Y-75019087D02*
G01*
X79762163Y-75726194D01*
X78772214Y-76716143D01*
X78065107Y-76009036D01*
X79055056Y-75019087D01*
G37*
G36*
X81565286Y-72508857D02*
G01*
X82272393Y-73215964D01*
X81282444Y-74205913D01*
X80575337Y-73498806D01*
X81565286Y-72508857D01*
G37*
D17*
X179575000Y-50800000D03*
X176025000Y-50800000D03*
D16*
G36*
X160017556Y-49619087D02*
G01*
X160724663Y-50326194D01*
X159734714Y-51316143D01*
X159027607Y-50609036D01*
X160017556Y-49619087D01*
G37*
G36*
X162527786Y-47108857D02*
G01*
X163234893Y-47815964D01*
X162244944Y-48805913D01*
X161537837Y-48098806D01*
X162527786Y-47108857D01*
G37*
G36*
X145730056Y-55969087D02*
G01*
X146437163Y-56676194D01*
X145447214Y-57666143D01*
X144740107Y-56959036D01*
X145730056Y-55969087D01*
G37*
G36*
X148240286Y-53458857D02*
G01*
X148947393Y-54165964D01*
X147957444Y-55155913D01*
X147250337Y-54448806D01*
X148240286Y-53458857D01*
G37*
G36*
X126680056Y-55969087D02*
G01*
X127387163Y-56676194D01*
X126397214Y-57666143D01*
X125690107Y-56959036D01*
X126680056Y-55969087D01*
G37*
G36*
X129190286Y-53458857D02*
G01*
X129897393Y-54165964D01*
X128907444Y-55155913D01*
X128200337Y-54448806D01*
X129190286Y-53458857D01*
G37*
G36*
X107630056Y-55969087D02*
G01*
X108337163Y-56676194D01*
X107347214Y-57666143D01*
X106640107Y-56959036D01*
X107630056Y-55969087D01*
G37*
G36*
X110140286Y-53458857D02*
G01*
X110847393Y-54165964D01*
X109857444Y-55155913D01*
X109150337Y-54448806D01*
X110140286Y-53458857D01*
G37*
G36*
X88580056Y-55969087D02*
G01*
X89287163Y-56676194D01*
X88297214Y-57666143D01*
X87590107Y-56959036D01*
X88580056Y-55969087D01*
G37*
G36*
X91090286Y-53458857D02*
G01*
X91797393Y-54165964D01*
X90807444Y-55155913D01*
X90100337Y-54448806D01*
X91090286Y-53458857D01*
G37*
G36*
X69530056Y-55969087D02*
G01*
X70237163Y-56676194D01*
X69247214Y-57666143D01*
X68540107Y-56959036D01*
X69530056Y-55969087D01*
G37*
G36*
X72040286Y-53458857D02*
G01*
X72747393Y-54165964D01*
X71757444Y-55155913D01*
X71050337Y-54448806D01*
X72040286Y-53458857D01*
G37*
G36*
X161605056Y-38506587D02*
G01*
X162312163Y-39213694D01*
X161322214Y-40203643D01*
X160615107Y-39496536D01*
X161605056Y-38506587D01*
G37*
G36*
X164115286Y-35996357D02*
G01*
X164822393Y-36703464D01*
X163832444Y-37693413D01*
X163125337Y-36986306D01*
X164115286Y-35996357D01*
G37*
G36*
X160017556Y-36919087D02*
G01*
X160724663Y-37626194D01*
X159734714Y-38616143D01*
X159027607Y-37909036D01*
X160017556Y-36919087D01*
G37*
G36*
X162527786Y-34408857D02*
G01*
X163234893Y-35115964D01*
X162244944Y-36105913D01*
X161537837Y-35398806D01*
X162527786Y-34408857D01*
G37*
G36*
X140967556Y-36919087D02*
G01*
X141674663Y-37626194D01*
X140684714Y-38616143D01*
X139977607Y-37909036D01*
X140967556Y-36919087D01*
G37*
G36*
X143477786Y-34408857D02*
G01*
X144184893Y-35115964D01*
X143194944Y-36105913D01*
X142487837Y-35398806D01*
X143477786Y-34408857D01*
G37*
G36*
X121917556Y-36919087D02*
G01*
X122624663Y-37626194D01*
X121634714Y-38616143D01*
X120927607Y-37909036D01*
X121917556Y-36919087D01*
G37*
G36*
X124427786Y-34408857D02*
G01*
X125134893Y-35115964D01*
X124144944Y-36105913D01*
X123437837Y-35398806D01*
X124427786Y-34408857D01*
G37*
G36*
X102867556Y-36919087D02*
G01*
X103574663Y-37626194D01*
X102584714Y-38616143D01*
X101877607Y-37909036D01*
X102867556Y-36919087D01*
G37*
G36*
X105377786Y-34408857D02*
G01*
X106084893Y-35115964D01*
X105094944Y-36105913D01*
X104387837Y-35398806D01*
X105377786Y-34408857D01*
G37*
G36*
X83817556Y-36919087D02*
G01*
X84524663Y-37626194D01*
X83534714Y-38616143D01*
X82827607Y-37909036D01*
X83817556Y-36919087D01*
G37*
G36*
X86327786Y-34408857D02*
G01*
X87034893Y-35115964D01*
X86044944Y-36105913D01*
X85337837Y-35398806D01*
X86327786Y-34408857D01*
G37*
G36*
X85405056Y-38506587D02*
G01*
X86112163Y-39213694D01*
X85122214Y-40203643D01*
X84415107Y-39496536D01*
X85405056Y-38506587D01*
G37*
G36*
X87915286Y-35996357D02*
G01*
X88622393Y-36703464D01*
X87632444Y-37693413D01*
X86925337Y-36986306D01*
X87915286Y-35996357D01*
G37*
D10*
X113665000Y-94932500D03*
D11*
X111125000Y-100012500D03*
D10*
X107315000Y-97472500D03*
D12*
X106045000Y-100012500D03*
X116205000Y-100012500D03*
D10*
X170815000Y-75882500D03*
D11*
X168275000Y-80962500D03*
D10*
X164465000Y-78422500D03*
D12*
X163195000Y-80962500D03*
X173355000Y-80962500D03*
D10*
X151765000Y-75882500D03*
D11*
X149225000Y-80962500D03*
D10*
X145415000Y-78422500D03*
D12*
X144145000Y-80962500D03*
X154305000Y-80962500D03*
D10*
X132715000Y-75882500D03*
D11*
X130175000Y-80962500D03*
D10*
X126365000Y-78422500D03*
D12*
X125095000Y-80962500D03*
X135255000Y-80962500D03*
D10*
X113665000Y-75882500D03*
D11*
X111125000Y-80962500D03*
D10*
X107315000Y-78422500D03*
D12*
X106045000Y-80962500D03*
X116205000Y-80962500D03*
D10*
X94615000Y-75882500D03*
D11*
X92075000Y-80962500D03*
D10*
X88265000Y-78422500D03*
D12*
X86995000Y-80962500D03*
X97155000Y-80962500D03*
D10*
X75565000Y-75882500D03*
D11*
X73025000Y-80962500D03*
D10*
X69215000Y-78422500D03*
D12*
X67945000Y-80962500D03*
X78105000Y-80962500D03*
D10*
X180340000Y-56832500D03*
D11*
X177800000Y-61912500D03*
D10*
X173990000Y-59372500D03*
D12*
X172720000Y-61912500D03*
X182880000Y-61912500D03*
D10*
X161290000Y-56832500D03*
D11*
X158750000Y-61912500D03*
D10*
X154940000Y-59372500D03*
D12*
X153670000Y-61912500D03*
X163830000Y-61912500D03*
D10*
X142240000Y-56832500D03*
D11*
X139700000Y-61912500D03*
D10*
X135890000Y-59372500D03*
D12*
X134620000Y-61912500D03*
X144780000Y-61912500D03*
D10*
X123190000Y-56832500D03*
D11*
X120650000Y-61912500D03*
D10*
X116840000Y-59372500D03*
D12*
X115570000Y-61912500D03*
X125730000Y-61912500D03*
D10*
X104140000Y-56832500D03*
D11*
X101600000Y-61912500D03*
D10*
X97790000Y-59372500D03*
D12*
X96520000Y-61912500D03*
X106680000Y-61912500D03*
D10*
X85090000Y-56832500D03*
D11*
X82550000Y-61912500D03*
D10*
X78740000Y-59372500D03*
D12*
X77470000Y-61912500D03*
X87630000Y-61912500D03*
D10*
X66040000Y-56832500D03*
D11*
X63500000Y-61912500D03*
D10*
X59690000Y-59372500D03*
D12*
X58420000Y-61912500D03*
X68580000Y-61912500D03*
D10*
X175577500Y-37782500D03*
D11*
X173037500Y-42862500D03*
D10*
X169227500Y-40322500D03*
D12*
X167957500Y-42862500D03*
X178117500Y-42862500D03*
D10*
X156527500Y-37782500D03*
D11*
X153987500Y-42862500D03*
D10*
X150177500Y-40322500D03*
D12*
X148907500Y-42862500D03*
X159067500Y-42862500D03*
D10*
X137477500Y-37782500D03*
D11*
X134937500Y-42862500D03*
D10*
X131127500Y-40322500D03*
D12*
X129857500Y-42862500D03*
X140017500Y-42862500D03*
D10*
X118427500Y-37782500D03*
D11*
X115887500Y-42862500D03*
D10*
X112077500Y-40322500D03*
D12*
X110807500Y-42862500D03*
X120967500Y-42862500D03*
D10*
X99377500Y-37782500D03*
D11*
X96837500Y-42862500D03*
D10*
X93027500Y-40322500D03*
D12*
X91757500Y-42862500D03*
X101917500Y-42862500D03*
D10*
X80327500Y-37782500D03*
D11*
X77787500Y-42862500D03*
D10*
X73977500Y-40322500D03*
D12*
X72707500Y-42862500D03*
X82867500Y-42862500D03*
D10*
X61277500Y-37782500D03*
D11*
X58737500Y-42862500D03*
D10*
X54927500Y-40322500D03*
D12*
X53657500Y-42862500D03*
X63817500Y-42862500D03*
M02*
